<svg width="40" height="40" viewBox="0 0 40 40" fill="none" xmlns="http://www.w3.org/2000/svg">
<path d="M23.7025 4.79633C21.2185 3.2643 18.275 2.42188 15.2344 2.42188C6.95734 2.42188 0 8.58852 0 16.4844C0 19.2527 0.86 21.9066 2.49359 24.1985L0.211562 31.363C-0.0295313 32.1198 0.537344 32.8906 1.32836 32.8906C1.50922 32.8906 1.69125 32.8488 1.85922 32.7634L8.79922 29.2347C9.08023 29.3557 9.36477 29.4683 9.65219 29.5728C8.04539 27.0648 7.1875 24.1859 7.1875 21.1719C7.1875 12.1955 14.7405 5.29469 23.7025 4.79633Z" fill="#E7E7E7"/>
<path d="M37.5064 28.886C39.14 26.5941 40 23.9402 40 21.1719C40 13.2731 33.0397 7.10938 24.7656 7.10938C16.4886 7.10938 9.53125 13.276 9.53125 21.1719C9.53125 29.0706 16.4916 35.2344 24.7656 35.2344C26.9857 35.2344 29.1978 34.782 31.2004 33.922L38.1408 37.4509C38.562 37.665 39.0707 37.6052 39.4308 37.2992C39.7909 36.9932 39.932 36.5009 39.7885 36.0506L37.5064 28.886ZM20 22.3438C19.3528 22.3438 18.8281 21.8191 18.8281 21.1719C18.8281 20.5247 19.3528 20 20 20C20.6472 20 21.1719 20.5247 21.1719 21.1719C21.1719 21.8191 20.6472 22.3438 20 22.3438ZM24.6875 22.3438C24.0403 22.3438 23.5156 21.8191 23.5156 21.1719C23.5156 20.5247 24.0403 20 24.6875 20C25.3347 20 25.8594 20.5247 25.8594 21.1719C25.8594 21.8191 25.3347 22.3438 24.6875 22.3438ZM29.375 22.3438C28.7278 22.3438 28.2031 21.8191 28.2031 21.1719C28.2031 20.5247 28.7278 20 29.375 20C30.0222 20 30.5469 20.5247 30.5469 21.1719C30.5469 21.8191 30.0222 22.3438 29.375 22.3438Z" fill="#83B735"/>
</svg>
