<?xml version="1.0" encoding="UTF-8"?>
<svg width="100pt" height="100pt" version="1.1" viewBox="0 0 100 100" xmlns="http://www.w3.org/2000/svg">
 <g fill="#0070db">
  <path d="m80.41 94.84h-60.82c-0.48438 0-0.94922-0.19531-1.2891-0.53906-0.33984-0.34766-0.52734-0.81641-0.51953-1.3008l2-62.281c0.03125-0.97656 0.83203-1.75 1.8086-1.75h56.852c0.97656 0 1.7773 0.77344 1.8086 1.75l2 62.281c0.007812 0.49219-0.18359 0.96484-0.53125 1.3086-0.34375 0.34766-0.81641 0.53906-1.3086 0.53125zm-59-3.6211h57.129l-1.8477-58.66h-53.383z"/>
  <path d="m36.691 83.789c-0.46484-0.019531-0.875-0.30469-1.0586-0.73047-0.18359-0.42578-0.10547-0.91797 0.19531-1.2695l26.723-27.258c0.47656-0.41016 1.1875-0.38672 1.6367 0.054688 0.44531 0.44141 0.48438 1.1484 0.082031 1.6328l-26.719 27.203c-0.22656 0.23438-0.53516 0.36719-0.85938 0.36719z"/>
  <path d="m47.023 57.91c2.2188 2.2188 2.2188 5.8125 0 8.0312s-5.8164 2.2188-8.0312 0c-2.2188-2.2188-2.2188-5.8125 0-8.0312 2.2148-2.2188 5.8125-2.2188 8.0312 0"/>
  <path d="m61.117 72.004c2.2188 2.2148 2.2188 5.8125 0 8.0312s-5.8164 2.2188-8.0352 0c-2.2148-2.2188-2.2148-5.8164 0-8.0312 2.2188-2.2188 5.8164-2.2188 8.0352 0"/>
  <path d="m37.34 30.75h-2.418v-10.52l2.418-0.070313z"/>
  <path d="m65.059 30.75h-2.4102v-10.52l2.4102-0.070313z"/>
  <path d="m63.859 20.23h-1.2109v-0.070313c0-6.9922-5.668-12.66-12.66-12.66-6.9883 0-12.66 5.668-12.66 12.66l-2.4102 0.070313h0.003906c-0.015625-5.3828 2.8438-10.367 7.5-13.07 4.6523-2.707 10.398-2.7227 15.07-0.042968 4.668 2.6797 7.5547 7.6484 7.5664 13.031z"/>
  <path d="m39.289 41.59c0 4.2148-6.3203 4.2148-6.3203 0s6.3203-4.2148 6.3203 0"/>
  <path d="m36.129 45.359c-1.5234 0-2.8984-0.91797-3.4805-2.3281-0.58594-1.4062-0.26172-3.0273 0.81641-4.1055s2.6992-1.4023 4.1094-0.82031c1.4062 0.58594 2.3242 1.9609 2.3242 3.4844 0 1-0.39453 1.957-1.1016 2.6641-0.70703 0.70703-1.668 1.1055-2.668 1.1055zm0-6.3281c-1.0352 0-1.9688 0.62109-2.3633 1.5781-0.39844 0.95703-0.17969 2.0586 0.55469 2.7891 0.73047 0.73437 1.832 0.95312 2.7891 0.55859 0.95703-0.39844 1.582-1.332 1.582-2.3672 0.007813-0.68359-0.25781-1.3438-0.74219-1.8281-0.48047-0.48828-1.1367-0.76172-1.8203-0.76172z"/>
  <path d="m34.922 28.789h2.4102v9.6406h-2.4102z"/>
  <path d="m67.02 41.59c0 4.2148-6.3203 4.2148-6.3203 0s6.3203-4.2148 6.3203 0"/>
  <path d="m63.859 45.359c-1.5234 0-2.8984-0.91797-3.4805-2.3281-0.58594-1.4062-0.26172-3.0273 0.81641-4.1055 1.0781-1.0781 2.6992-1.4023 4.1055-0.82031 1.4102 0.58594 2.3281 1.9609 2.3281 3.4844 0 2.082-1.6875 3.7695-3.7695 3.7695zm0-6.3281c-1.0352 0-1.9688 0.62109-2.3633 1.5781-0.39844 0.95703-0.17969 2.0586 0.55469 2.7891 0.73047 0.73437 1.832 0.95312 2.7891 0.55859 0.95703-0.39844 1.582-1.332 1.582-2.3672 0.007813-0.68359-0.26172-1.3438-0.74219-1.8281-0.48047-0.48828-1.1367-0.76172-1.8203-0.76172z"/>
  <path d="m62.648 28.789h2.4102v9.6406h-2.4102z"/>
 </g>
</svg>
