<?xml version="1.0" encoding="UTF-8"?>
<svg width="100pt" height="100pt" version="1.1" viewBox="0 0 100 100" xmlns="http://www.w3.org/2000/svg">
 <g fill="#0070db">
  <path d="m50 41.734c1.707 0 3.1094 1.3555 3.1641 3.0625 0 1.125 0.91406 2.0391 2.0391 2.0391 1.1289 0 2.043-0.91406 2.043-2.0391-0.019532-3.1836-2.1406-5.9727-5.207-6.8359v-1.2266c0-1.125-0.91016-2.0391-2.0391-2.0391s-2.0391 0.91406-2.0391 2.0391v1.2266c-3.0664 0.86328-5.1875 3.6523-5.207 6.8359 0 4 3.2461 7.2422 7.2461 7.2422 1.2812 0 2.4336 0.77344 2.9219 1.9531 0.48828 1.1836 0.21875 2.543-0.68359 3.4492-0.90625 0.90234-2.2656 1.1758-3.4492 0.68359-1.1797-0.48828-1.9531-1.6406-1.9531-2.9219 0-1.125-0.91406-2.0391-2.0391-2.0391-1.1289 0-2.043 0.91406-2.043 2.0391 0.019532 3.1836 2.1406 5.9727 5.207 6.8359v1.2266c0 1.125 0.91016 2.0391 2.0391 2.0391s2.0391-0.91406 2.0391-2.0391v-1.2266c3.0664-0.86328 5.1875-3.6523 5.207-6.8359 0-4-3.2461-7.2422-7.2461-7.2422-0.92188 0.16797-1.8711-0.085938-2.5938-0.68359-0.71875-0.60156-1.1367-1.4922-1.1367-2.4297s0.41797-1.8281 1.1367-2.4297c0.72266-0.60156 1.6719-0.85156 2.5938-0.68359z"/>
  <path d="m83.164 40c-0.38281-0.58203-1.0391-0.92969-1.7344-0.91797-0.66797 0.003907-1.2852 0.35156-1.6328 0.91797l-9.082 13.164c-0.42578 0.5625-0.46875 1.332-0.10156 1.9375 0.32422 0.65625 1.0039 1.0547 1.7344 1.0195h6.5312c-2.8594 15.309-16.84 24.082-28.98 24.082-8.6719 0-17.961-4.6953-23.57-11.938-0.32422-0.44141-0.81641-0.72656-1.3633-0.78516-0.54297-0.058594-1.0859 0.11328-1.4961 0.48047-0.86719 0.70703-1.0039 1.9805-0.30469 2.8555 6.4062 8.3125 16.242 13.27 26.734 13.469 13.98 0 30.305-10.816 33.164-28.164h7.4492c0.75 0.0625 1.4727-0.31641 1.8438-0.97656 0.37109-0.65625 0.32812-1.4688-0.10938-2.082zm-6.9414 12.039 5.2031-7.5508 5.207 7.5508z"/>
  <path d="m29.387 44.898c-0.32422-0.65625-1.0039-1.0547-1.7344-1.0195h-6.5312c2.8555-15.305 16.836-24.082 28.98-24.082 8.6719 0 17.961 4.6953 23.57 11.938 0.32422 0.44141 0.81641 0.72656 1.3633 0.78516 0.54297 0.058594 1.0859-0.11328 1.4961-0.48047 0.86719-0.70703 1.0039-1.9805 0.30469-2.8555-6.4062-8.3125-16.242-13.27-26.734-13.469-13.98 0-30.305 10.816-33.164 28.164h-7.4492c-0.75-0.0625-1.4727 0.31641-1.8438 0.97656-0.37109 0.65625-0.32812 1.4688 0.10938 2.082l9.082 13.062c0.38281 0.58203 1.0391 0.92969 1.7344 0.91797 0.66797-0.003907 1.2852-0.35156 1.6328-0.91797l9.082-13.062c0.44531-0.59375 0.48438-1.4023 0.10156-2.0391zm-10.816 10.613-5.2031-7.5508h10.41z"/>
 </g>
</svg>
