<?xml version="1.0" encoding="UTF-8"?>
<svg width="100pt" height="100pt" version="1.1" viewBox="0 0 100 100" xmlns="http://www.w3.org/2000/svg">
 <g fill="#0070db">
  <path d="m50 50v-25h34.375v18.75h6.25v-40.625c0-0.82812-0.32812-1.625-0.91406-2.2109-0.58594-0.58594-1.3828-0.91406-2.2109-0.91406h-81.25c-1.7266 0-3.125 1.3984-3.125 3.125v68.75c0.003906 1.0859 0.57422 2.0898 1.5 2.6562l31.25 19.219 3.125-5.3125-29.625-18.312v-45.125h34.375v25zm-40.625-43.75h75v12.5h-75z"/>
  <path d="m71.875 50c-6.6289 0-12.988 2.6328-17.676 7.3242-4.6914 4.6875-7.3242 11.047-7.3242 17.676s2.6328 12.988 7.3242 17.676c4.6875 4.6914 11.047 7.3242 17.676 7.3242s12.988-2.6328 17.676-7.3242c4.6914-4.6875 7.3242-11.047 7.3242-17.676s-2.6328-12.988-7.3242-17.676c-4.6875-4.6914-11.047-7.3242-17.676-7.3242zm0 43.75c-4.9727 0-9.7422-1.9766-13.258-5.4922-3.5156-3.5156-5.4922-8.2852-5.4922-13.258s1.9766-9.7422 5.4922-13.258c3.5156-3.5156 8.2852-5.4922 13.258-5.4922s9.7422 1.9766 13.258 5.4922c3.5156 3.5156 5.4922 8.2852 5.4922 13.258s-1.9766 9.7422-5.4922 13.258c-3.5156 3.5156-8.2852 5.4922-13.258 5.4922z"/>
  <path d="m65.625 76.844-4.0312-4.0312-4.4062 4.4062 6.25 6.25c1.2188 1.2109 3.1875 1.2109 4.4062 0l15.625-15.625-4.4062-4.4062z"/>
 </g>
</svg>
