<?xml version="1.0" encoding="UTF-8"?>
<svg width="100pt" height="100pt" version="1.1" viewBox="0 0 100 100" xmlns="http://www.w3.org/2000/svg">
 <g fill="#0070db">
  <path d="m95.172 68h-61.262c-2.75 0-5.1523-1.8711-5.8203-4.5391l-8.8008-35.062c-1.1133-4.4492-5.1133-7.5664-9.6992-7.5703h-4.7617c-1.1016 0-2 0.89844-2 2 0 1.1055 0.89844 2 2 2h4.7617c2.75 0 5.1523 1.875 5.8203 4.543l8.8008 35.059c1.1133 4.4492 5.1133 7.5703 9.6992 7.5703h61.262c1.1016 0 2-0.89453 2-2s-0.89844-2-2-2z"/>
  <path d="m45.5 94.672c4.1758 0 7.9414-2.5195 9.543-6.375 1.5977-3.8594 0.71875-8.3008-2.2344-11.258-2.9531-2.957-7.3945-3.8398-11.254-2.2461-3.8594 1.5977-6.3789 5.3594-6.3828 9.5352 0.003906 5.707 4.625 10.332 10.328 10.344zm0-16.672c2.5586 0 4.8672 1.543 5.8477 3.9062 0.98047 2.3672 0.4375 5.0898-1.3711 6.8984-1.8125 1.8125-4.5352 2.3516-6.8984 1.375-2.3672-0.98047-3.9062-3.2891-3.9062-5.8516 0.003906-3.4922 2.8359-6.3242 6.3281-6.3281z"/>
  <path d="m80.5 94.672c4.1758 0 7.9414-2.5195 9.543-6.375 1.5977-3.8594 0.71875-8.3008-2.2344-11.258-2.9531-2.957-7.3945-3.8398-11.254-2.2461-3.8594 1.5977-6.3789 5.3594-6.3828 9.5352 0.003906 5.707 4.625 10.332 10.328 10.344zm0-16.672c2.5586 0 4.8672 1.543 5.8477 3.9062 0.98047 2.3672 0.4375 5.0898-1.3711 6.8984-1.8125 1.8125-4.5352 2.3516-6.8984 1.375-2.3672-0.98047-3.9062-3.2891-3.9062-5.8516 0.003906-3.4922 2.8359-6.3242 6.3281-6.3281z"/>
  <path d="m31.422 55.172c0 2.6484 1.0508 5.1953 2.9258 7.0703s4.4219 2.9297 7.0742 2.9297h41.156c2.6523 0 5.1992-1.0547 7.0742-2.9297s2.9258-4.4219 2.9258-7.0703v-1.75c0-3.5703-1.9062-6.8672-5-8.6523v-21.348c0-2.6523-1.0508-5.1992-2.9258-7.0742s-4.4219-2.9258-7.0742-2.9258h-5.5781v-2.0938c0-3.3125-2.6875-6-6-6h-8c-3.3125 0-6 2.6875-6 6v2.0781l-6.5781 0.003906c-5.5234 0-10 4.4766-10 10v22c-2.5195 1.8867-4 4.8516-4 8zm52.156-31.75v20.047c-0.32812 0-0.66016-0.050781-1-0.050781l-7.0781 0.003906v-26h2.0781c3.3164 0 6 2.6836 6 6zm-12.078-6v26h-20v-26zm-15.5-6.0938c0-1.1016 0.89453-2 2-2h8c0.53125 0 1.0391 0.21094 1.4141 0.58594s0.58594 0.88672 0.58594 1.4141v2.0781l-12 0.003906zm-16.578 12.094c0-3.3164 2.6836-6 6-6h2.0781v26h-6.0781c-0.67188-0.003906-1.3438 0.066406-2 0.19922zm-4 30c0-3.3164 2.6836-6 6-6h41.156c3.3164 0 6 2.6836 6 6v1.75c0 3.3125-2.6836 6-6 6h-41.156c-3.3164 0-6-2.6875-6-6z"/>
  <path d="m59 58.25h6c1.3242 0 2.5977-0.52734 3.5352-1.4648s1.4648-2.2109 1.4648-3.5352v-2.9219h-4v2.9219c0 0.26562-0.10547 0.51953-0.29297 0.70703s-0.44141 0.29297-0.70703 0.29297h-6c-0.55078 0-1-0.44922-1-1v-2.9219h-4v2.9219c0 1.3242 0.52734 2.5977 1.4648 3.5352s2.2109 1.4648 3.5352 1.4648z"/>
 </g>
</svg>
