<svg width="40" height="40" viewBox="0 0 40 40" fill="none" xmlns="http://www.w3.org/2000/svg">
<path d="M36.7412 29.2C35.6488 28.2838 29.2413 24.2263 28.1763 24.4125C27.6763 24.5013 27.2938 24.9275 26.27 26.1488C25.7966 26.7499 25.2766 27.3128 24.715 27.8325C23.686 27.5839 22.6899 27.2147 21.7475 26.7325C18.0516 24.9331 15.0658 21.9464 13.2675 18.25C12.7853 17.3076 12.4161 16.3115 12.1675 15.2825C12.6872 14.7209 13.2501 14.2009 13.8513 13.7275C15.0712 12.7038 15.4988 12.3237 15.5875 11.8212C15.7738 10.7537 11.7125 4.34875 10.8 3.25625C10.4175 2.80375 10.07 2.5 9.625 2.5C8.335 2.5 2.5 9.715 2.5 10.65C2.5 10.7263 2.625 18.2375 12.1112 27.8888C21.7625 37.375 29.2738 37.5 29.35 37.5C30.285 37.5 37.5 31.665 37.5 30.375C37.5 29.93 37.1963 29.5825 36.7412 29.2Z" fill="#83B735"/>
<path d="M28.75 18.75H31.25C31.247 16.0987 30.1925 13.5569 28.3178 11.6822C26.4431 9.8075 23.9013 8.75298 21.25 8.75V11.25C23.2385 11.252 25.145 12.0428 26.5511 13.4489C27.9572 14.855 28.748 16.7615 28.75 18.75Z" fill="#E7E7E7"/>
<path d="M35 18.75H37.5C37.495 14.4418 35.7814 10.3114 32.735 7.265C29.6886 4.2186 25.5582 2.50496 21.25 2.5V5C24.8954 5.0043 28.3903 6.45434 30.968 9.03203C33.5457 11.6097 34.9957 15.1046 35 18.75Z" fill="#E7E7E7"/>
</svg>
