<svg xmlns="http://www.w3.org/2000/svg" width="160" height="30" viewBox="0 0 160 30" fill="none"><path d="M26.064 17.164L19.152 1.54L12.312 17.164L7.344 2.8H0.144L11.052 29.476L19.152 14.284L27.288 29.476L38.196 2.8H30.96L26.064 17.164ZM43.9715 28H56.6795V22.996H43.9715V28ZM43.9715 7.804H56.6795V2.8H43.9715V7.804ZM43.9715 17.2H55.9595V12.304H43.9715V17.2ZM39.9395 2.8V28H45.7715V2.8H39.9395ZM60.5509 2.8V28H66.7429V2.8H60.5509ZM75.5381 15.472H80.2541C82.0061 15.472 83.5421 15.232 84.8621 14.752C86.2061 14.248 87.2621 13.528 88.0301 12.592C88.8221 11.656 89.2181 10.528 89.2181 9.208C89.2181 7.768 88.8221 6.58 88.0301 5.644C87.2621 4.684 86.2061 3.976 84.8621 3.52C83.5421 3.04 82.0061 2.8 80.2541 2.8H71.0021V28H80.8661C82.8581 28 84.5861 27.76 86.0501 27.28C87.5141 26.776 88.6421 26.008 89.4341 24.976C90.2501 23.944 90.6581 22.588 90.6581 20.908C90.6581 19.636 90.3701 18.556 89.7941 17.668C89.2421 16.756 88.4981 16.012 87.5621 15.436C86.6261 14.836 85.5821 14.404 84.4301 14.14C83.2781 13.876 82.0901 13.744 80.8661 13.744H75.5381V17.056H80.1821C80.7821 17.056 81.3221 17.116 81.8021 17.236C82.3061 17.332 82.7501 17.5 83.1341 17.74C83.5181 17.98 83.8181 18.292 84.0341 18.676C84.2501 19.06 84.3581 19.516 84.3581 20.044C84.3581 20.86 84.1661 21.508 83.7821 21.988C83.4221 22.444 82.9301 22.78 82.3061 22.996C81.6821 23.188 80.9741 23.284 80.1821 23.284H77.0861V7.516H79.6061C80.6621 7.516 81.4781 7.732 82.0541 8.164C82.6301 8.596 82.9181 9.244 82.9181 10.108C82.9181 10.684 82.7861 11.176 82.5221 11.584C82.2581 11.968 81.8741 12.268 81.3701 12.484C80.8901 12.7 80.3021 12.808 79.6061 12.808H75.5381V15.472ZM98.8324 15.4C98.8324 13.912 99.1204 12.604 99.6964 11.476C100.296 10.324 101.124 9.424 102.18 8.776C103.26 8.128 104.52 7.804 105.96 7.804C107.424 7.804 108.684 8.128 109.74 8.776C110.796 9.424 111.612 10.324 112.188 11.476C112.764 12.604 113.052 13.912 113.052 15.4C113.052 16.888 112.752 18.208 112.152 19.36C111.576 20.488 110.748 21.376 109.668 22.024C108.612 22.672 107.376 22.996 105.96 22.996C104.52 22.996 103.26 22.672 102.18 22.024C101.124 21.376 100.296 20.488 99.6964 19.36C99.1204 18.208 98.8324 16.888 98.8324 15.4ZM92.3884 15.4C92.3884 17.344 92.7124 19.132 93.3604 20.764C94.0324 22.396 94.9684 23.812 96.1684 25.012C97.3924 26.212 98.8324 27.148 100.488 27.82C102.144 28.468 103.968 28.792 105.96 28.792C107.928 28.792 109.74 28.468 111.396 27.82C113.052 27.148 114.48 26.212 115.68 25.012C116.904 23.812 117.84 22.396 118.488 20.764C119.16 19.132 119.496 17.344 119.496 15.4C119.496 13.456 119.16 11.68 118.488 10.072C117.816 8.464 116.868 7.072 115.644 5.896C114.42 4.72 112.98 3.82 111.324 3.196C109.692 2.548 107.904 2.224 105.96 2.224C104.04 2.224 102.252 2.548 100.596 3.196C98.9404 3.82 97.5004 4.72 96.2764 5.896C95.0524 7.072 94.0924 8.464 93.3964 10.072C92.7244 11.68 92.3884 13.456 92.3884 15.4ZM127.319 15.4C127.319 13.912 127.607 12.604 128.183 11.476C128.783 10.324 129.611 9.424 130.667 8.776C131.747 8.128 133.007 7.804 134.447 7.804C135.911 7.804 137.171 8.128 138.227 8.776C139.283 9.424 140.099 10.324 140.675 11.476C141.251 12.604 141.539 13.912 141.539 15.4C141.539 16.888 141.239 18.208 140.639 19.36C140.063 20.488 139.235 21.376 138.155 22.024C137.099 22.672 135.863 22.996 134.447 22.996C133.007 22.996 131.747 22.672 130.667 22.024C129.611 21.376 128.783 20.488 128.183 19.36C127.607 18.208 127.319 16.888 127.319 15.4ZM120.875 15.4C120.875 17.344 121.199 19.132 121.847 20.764C122.519 22.396 123.455 23.812 124.655 25.012C125.879 26.212 127.319 27.148 128.975 27.82C130.631 28.468 132.455 28.792 134.447 28.792C136.415 28.792 138.227 28.468 139.883 27.82C141.539 27.148 142.967 26.212 144.167 25.012C145.391 23.812 146.327 22.396 146.975 20.764C147.647 19.132 147.983 17.344 147.983 15.4C147.983 13.456 147.647 11.68 146.975 10.072C146.303 8.464 145.355 7.072 144.131 5.896C142.907 4.72 141.467 3.82 139.811 3.196C138.179 2.548 136.391 2.224 134.447 2.224C132.527 2.224 130.739 2.548 129.083 3.196C127.427 3.82 125.987 4.72 124.763 5.896C123.539 7.072 122.579 8.464 121.883 10.072C121.211 11.68 120.875 13.456 120.875 15.4Z" fill="black"></path><path d="M150.549 25.552C150.549 26.464 150.873 27.244 151.521 27.892C152.169 28.54 152.973 28.864 153.933 28.864C154.941 28.864 155.757 28.54 156.381 27.892C157.005 27.244 157.317 26.464 157.317 25.552C157.317 24.64 157.005 23.86 156.381 23.212C155.757 22.564 154.941 22.24 153.933 22.24C152.973 22.24 152.169 22.564 151.521 23.212C150.873 23.86 150.549 24.64 150.549 25.552Z" fill="#A66E37"></path></svg>