<svg xmlns="http://www.w3.org/2000/svg" width="177" height="32" viewBox="0 0 177 32" fill="none"><path d="M28.72 19.4L20.84 0.599999L13.04 19.4L6.96 2H0.24L12 31.56L20.84 13.16L29.64 31.56L41.44 2H34.72L28.72 19.4ZM48.3606 30H62.4806V25.16H48.3606V30ZM48.3606 6.84H62.4806V2H48.3606V6.84ZM48.3606 17.52H61.6806V12.76H48.3606V17.52ZM44.6806 2V30H50.2006V2H44.6806ZM68.1181 2V30H73.9181V2H68.1181ZM84.2341 15.8H89.2741C91.1407 15.8 92.7807 15.5467 94.1941 15.04C95.6074 14.5067 96.7141 13.7333 97.5141 12.72C98.3141 11.7067 98.7141 10.4933 98.7141 9.08C98.7141 7.48 98.3141 6.16 97.5141 5.12C96.7141 4.08 95.6074 3.30667 94.1941 2.8C92.7807 2.26667 91.1407 2 89.2741 2H79.9541V30H89.8741C91.9541 30 93.7807 29.72 95.3541 29.16C96.9274 28.6 98.1407 27.7333 98.9941 26.56C99.8741 25.3867 100.314 23.88 100.314 22.04C100.314 20.6533 100.021 19.4667 99.4341 18.48C98.8741 17.4933 98.1007 16.6933 97.1141 16.08C96.1274 15.44 95.0074 14.9733 93.7541 14.68C92.5274 14.3867 91.2341 14.24 89.8741 14.24H84.2341V17.36H89.3541C90.0741 17.36 90.7407 17.44 91.3541 17.6C91.9674 17.7333 92.5007 17.9733 92.9541 18.32C93.4341 18.64 93.7941 19.0533 94.0341 19.56C94.3007 20.04 94.4341 20.6267 94.4341 21.32C94.4341 22.28 94.2074 23.0667 93.7541 23.68C93.3274 24.2933 92.7274 24.7467 91.9541 25.04C91.1807 25.3067 90.3141 25.44 89.3541 25.44H85.6741V6.56H88.7541C90.0074 6.56 90.9941 6.84 91.7141 7.4C92.4607 7.96 92.8341 8.77333 92.8341 9.84C92.8341 10.5333 92.6607 11.1333 92.3141 11.64C91.9941 12.1467 91.5274 12.5333 90.9141 12.8C90.3007 13.0667 89.5807 13.2 88.7541 13.2H84.2341V15.8ZM109.628 16C109.628 14.2133 110.002 12.6267 110.748 11.24C111.495 9.85333 112.522 8.76 113.828 7.96C115.135 7.16 116.655 6.76 118.388 6.76C120.148 6.76 121.682 7.16 122.988 7.96C124.295 8.76 125.308 9.85333 126.028 11.24C126.748 12.6267 127.108 14.2133 127.108 16C127.108 17.7867 126.735 19.3733 125.988 20.76C125.268 22.1467 124.255 23.24 122.948 24.04C121.642 24.84 120.122 25.24 118.388 25.24C116.655 25.24 115.135 24.84 113.828 24.04C112.522 23.24 111.495 22.1467 110.748 20.76C110.002 19.3733 109.628 17.7867 109.628 16ZM103.588 16C103.588 18.1067 103.948 20.0667 104.668 21.88C105.388 23.6667 106.415 25.2267 107.748 26.56C109.082 27.8933 110.642 28.9333 112.428 29.68C114.242 30.4 116.228 30.76 118.388 30.76C120.548 30.76 122.522 30.4 124.308 29.68C126.122 28.9333 127.682 27.8933 128.988 26.56C130.322 25.2267 131.348 23.6667 132.068 21.88C132.815 20.0667 133.188 18.1067 133.188 16C133.188 13.8667 132.815 11.92 132.068 10.16C131.348 8.37333 130.308 6.82667 128.948 5.52C127.615 4.21333 126.055 3.21333 124.268 2.52C122.482 1.8 120.522 1.44 118.388 1.44C116.282 1.44 114.322 1.8 112.508 2.52C110.722 3.21333 109.162 4.21333 107.828 5.52C106.495 6.82667 105.455 8.37333 104.708 10.16C103.962 11.92 103.588 13.8667 103.588 16ZM142.05 16C142.05 14.2133 142.424 12.6267 143.17 11.24C143.917 9.85333 144.944 8.76 146.25 7.96C147.557 7.16 149.077 6.76 150.81 6.76C152.57 6.76 154.104 7.16 155.41 7.96C156.717 8.76 157.73 9.85333 158.45 11.24C159.17 12.6267 159.53 14.2133 159.53 16C159.53 17.7867 159.157 19.3733 158.41 20.76C157.69 22.1467 156.677 23.24 155.37 24.04C154.064 24.84 152.544 25.24 150.81 25.24C149.077 25.24 147.557 24.84 146.25 24.04C144.944 23.24 143.917 22.1467 143.17 20.76C142.424 19.3733 142.05 17.7867 142.05 16ZM136.01 16C136.01 18.1067 136.37 20.0667 137.09 21.88C137.81 23.6667 138.837 25.2267 140.17 26.56C141.504 27.8933 143.064 28.9333 144.85 29.68C146.664 30.4 148.65 30.76 150.81 30.76C152.97 30.76 154.944 30.4 156.73 29.68C158.544 28.9333 160.104 27.8933 161.41 26.56C162.744 25.2267 163.77 23.6667 164.49 21.88C165.237 20.0667 165.61 18.1067 165.61 16C165.61 13.8667 165.237 11.92 164.49 10.16C163.77 8.37333 162.73 6.82667 161.37 5.52C160.037 4.21333 158.477 3.21333 156.69 2.52C154.904 1.8 152.944 1.44 150.81 1.44C148.704 1.44 146.744 1.8 144.93 2.52C143.144 3.21333 141.584 4.21333 140.25 5.52C138.917 6.82667 137.877 8.37333 137.13 10.16C136.384 11.92 136.01 13.8667 136.01 16Z" fill="white"></path><path d="M170.032 27.64C170.032 28.4933 170.339 29.24 170.952 29.88C171.592 30.52 172.379 30.84 173.312 30.84C174.272 30.84 175.059 30.52 175.672 29.88C176.286 29.24 176.592 28.4933 176.592 27.64C176.592 26.7333 176.286 25.9733 175.672 25.36C175.059 24.72 174.272 24.4 173.312 24.4C172.379 24.4 171.592 24.72 170.952 25.36C170.339 25.9733 170.032 26.7333 170.032 27.64Z" fill="#83B735"></path></svg>