<svg xmlns="http://www.w3.org/2000/svg" width="212" height="33" viewBox="0 0 212 33" fill="none"><path d="M26.064 17.164L19.152 1.54L12.312 17.164L7.344 2.8H0.144L11.052 29.476L19.152 14.284L27.288 29.476L38.196 2.8H30.96L26.064 17.164ZM43.9715 28H56.6795V22.996H43.9715V28ZM43.9715 7.804H56.6795V2.8H43.9715V7.804ZM43.9715 17.2H55.9595V12.304H43.9715V17.2ZM39.9395 2.8V28H45.7715V2.8H39.9395ZM60.5509 2.8V28H66.7429V2.8H60.5509ZM75.5381 15.472H80.2541C82.0061 15.472 83.5421 15.232 84.8621 14.752C86.2061 14.248 87.2621 13.528 88.0301 12.592C88.8221 11.656 89.2181 10.528 89.2181 9.208C89.2181 7.768 88.8221 6.58 88.0301 5.644C87.2621 4.684 86.2061 3.976 84.8621 3.52C83.5421 3.04 82.0061 2.8 80.2541 2.8H71.0021V28H80.8661C82.8581 28 84.5861 27.76 86.0501 27.28C87.5141 26.776 88.6421 26.008 89.4341 24.976C90.2501 23.944 90.6581 22.588 90.6581 20.908C90.6581 19.636 90.3701 18.556 89.7941 17.668C89.2421 16.756 88.4981 16.012 87.5621 15.436C86.6261 14.836 85.5821 14.404 84.4301 14.14C83.2781 13.876 82.0901 13.744 80.8661 13.744H75.5381V17.056H80.1821C80.7821 17.056 81.3221 17.116 81.8021 17.236C82.3061 17.332 82.7501 17.5 83.1341 17.74C83.5181 17.98 83.8181 18.292 84.0341 18.676C84.2501 19.06 84.3581 19.516 84.3581 20.044C84.3581 20.86 84.1661 21.508 83.7821 21.988C83.4221 22.444 82.9301 22.78 82.3061 22.996C81.6821 23.188 80.9741 23.284 80.1821 23.284H77.0861V7.516H79.6061C80.6621 7.516 81.4781 7.732 82.0541 8.164C82.6301 8.596 82.9181 9.244 82.9181 10.108C82.9181 10.684 82.7861 11.176 82.5221 11.584C82.2581 11.968 81.8741 12.268 81.3701 12.484C80.8901 12.7 80.3021 12.808 79.6061 12.808H75.5381V15.472ZM98.8324 15.4C98.8324 13.912 99.1204 12.604 99.6964 11.476C100.296 10.324 101.124 9.424 102.18 8.776C103.26 8.128 104.52 7.804 105.96 7.804C107.424 7.804 108.684 8.128 109.74 8.776C110.796 9.424 111.612 10.324 112.188 11.476C112.764 12.604 113.052 13.912 113.052 15.4C113.052 16.888 112.752 18.208 112.152 19.36C111.576 20.488 110.748 21.376 109.668 22.024C108.612 22.672 107.376 22.996 105.96 22.996C104.52 22.996 103.26 22.672 102.18 22.024C101.124 21.376 100.296 20.488 99.6964 19.36C99.1204 18.208 98.8324 16.888 98.8324 15.4ZM92.3884 15.4C92.3884 17.344 92.7124 19.132 93.3604 20.764C94.0324 22.396 94.9684 23.812 96.1684 25.012C97.3924 26.212 98.8324 27.148 100.488 27.82C102.144 28.468 103.968 28.792 105.96 28.792C107.928 28.792 109.74 28.468 111.396 27.82C113.052 27.148 114.48 26.212 115.68 25.012C116.904 23.812 117.84 22.396 118.488 20.764C119.16 19.132 119.496 17.344 119.496 15.4C119.496 13.456 119.16 11.68 118.488 10.072C117.816 8.464 116.868 7.072 115.644 5.896C114.42 4.72 112.98 3.82 111.324 3.196C109.692 2.548 107.904 2.224 105.96 2.224C104.04 2.224 102.252 2.548 100.596 3.196C98.9404 3.82 97.5004 4.72 96.2764 5.896C95.0524 7.072 94.0924 8.464 93.3964 10.072C92.7244 11.68 92.3884 13.456 92.3884 15.4ZM127.319 15.4C127.319 13.912 127.607 12.604 128.183 11.476C128.783 10.324 129.611 9.424 130.667 8.776C131.747 8.128 133.007 7.804 134.447 7.804C135.911 7.804 137.171 8.128 138.227 8.776C139.283 9.424 140.099 10.324 140.675 11.476C141.251 12.604 141.539 13.912 141.539 15.4C141.539 16.888 141.239 18.208 140.639 19.36C140.063 20.488 139.235 21.376 138.155 22.024C137.099 22.672 135.863 22.996 134.447 22.996C133.007 22.996 131.747 22.672 130.667 22.024C129.611 21.376 128.783 20.488 128.183 19.36C127.607 18.208 127.319 16.888 127.319 15.4ZM120.875 15.4C120.875 17.344 121.199 19.132 121.847 20.764C122.519 22.396 123.455 23.812 124.655 25.012C125.879 26.212 127.319 27.148 128.975 27.82C130.631 28.468 132.455 28.792 134.447 28.792C136.415 28.792 138.227 28.468 139.883 27.82C141.539 27.148 142.967 26.212 144.167 25.012C145.391 23.812 146.327 22.396 146.975 20.764C147.647 19.132 147.983 17.344 147.983 15.4C147.983 13.456 147.647 11.68 146.975 10.072C146.303 8.464 145.355 7.072 144.131 5.896C142.907 4.72 141.467 3.82 139.811 3.196C138.179 2.548 136.391 2.224 134.447 2.224C132.527 2.224 130.739 2.548 129.083 3.196C127.427 3.82 125.987 4.72 124.763 5.896C123.539 7.072 122.579 8.464 121.883 10.072C121.211 11.68 120.875 13.456 120.875 15.4Z" fill="black"></path><path d="M150.549 25.552C150.549 26.464 150.873 27.244 151.521 27.892C152.169 28.54 152.973 28.864 153.933 28.864C154.941 28.864 155.757 28.54 156.381 27.892C157.005 27.244 157.317 26.464 157.317 25.552C157.317 24.64 157.005 23.86 156.381 23.212C155.757 22.564 154.941 22.24 153.933 22.24C152.973 22.24 152.169 22.564 151.521 23.212C150.873 23.86 150.549 24.64 150.549 25.552Z" fill="#EE403D"></path><path d="M170.778 5.32H175.16V4.2H170.778V5.32ZM170.778 9.24H175.02V8.12H170.778V9.24ZM170.12 4.2V14H171.31V4.2H170.12ZM176.71 12.012C176.71 11.7787 176.766 11.578 176.878 11.41C176.99 11.242 177.158 11.1113 177.382 11.018C177.616 10.9247 177.914 10.878 178.278 10.878C178.67 10.878 179.039 10.9293 179.384 11.032C179.73 11.1253 180.066 11.284 180.392 11.508V10.85C180.327 10.766 180.201 10.6587 180.014 10.528C179.828 10.388 179.576 10.2667 179.258 10.164C178.95 10.052 178.563 9.996 178.096 9.996C177.303 9.996 176.682 10.1873 176.234 10.57C175.796 10.9433 175.576 11.4427 175.576 12.068C175.576 12.5067 175.679 12.88 175.884 13.188C176.09 13.496 176.36 13.734 176.696 13.902C177.042 14.0607 177.41 14.14 177.802 14.14C178.157 14.14 178.512 14.0747 178.866 13.944C179.23 13.8133 179.534 13.6127 179.776 13.342C180.028 13.0713 180.154 12.7307 180.154 12.32L179.93 11.48C179.93 11.816 179.846 12.1147 179.678 12.376C179.52 12.628 179.3 12.824 179.02 12.964C178.75 13.104 178.442 13.174 178.096 13.174C177.826 13.174 177.583 13.132 177.368 13.048C177.163 12.9547 177 12.8193 176.878 12.642C176.766 12.4647 176.71 12.2547 176.71 12.012ZM176.542 9.044C176.645 8.96933 176.785 8.88067 176.962 8.778C177.14 8.67533 177.354 8.58667 177.606 8.512C177.868 8.43733 178.157 8.4 178.474 8.4C178.67 8.4 178.857 8.41867 179.034 8.456C179.212 8.49333 179.366 8.554 179.496 8.638C179.636 8.722 179.744 8.83867 179.818 8.988C179.893 9.128 179.93 9.31 179.93 9.534V14H181.05V9.38C181.05 8.96 180.943 8.60533 180.728 8.316C180.523 8.02667 180.229 7.80733 179.846 7.658C179.473 7.49933 179.034 7.42 178.53 7.42C177.933 7.42 177.42 7.50867 176.99 7.686C176.57 7.86333 176.239 8.04067 175.996 8.218L176.542 9.044ZM182.792 12.026L181.91 12.572C182.032 12.824 182.209 13.0713 182.442 13.314C182.685 13.5567 182.979 13.7573 183.324 13.916C183.67 14.0653 184.057 14.14 184.486 14.14C185.149 14.14 185.681 13.9533 186.082 13.58C186.493 13.2067 186.698 12.74 186.698 12.18C186.698 11.7973 186.605 11.4847 186.418 11.242C186.241 10.9993 185.998 10.794 185.69 10.626C185.382 10.4487 185.042 10.2853 184.668 10.136C184.444 10.0427 184.23 9.94467 184.024 9.842C183.819 9.73933 183.651 9.62267 183.52 9.492C183.39 9.36133 183.324 9.212 183.324 9.044C183.324 8.82933 183.408 8.67067 183.576 8.568C183.744 8.46533 183.945 8.414 184.178 8.414C184.514 8.414 184.813 8.49333 185.074 8.652C185.345 8.81067 185.569 9.01133 185.746 9.254L186.642 8.68C186.512 8.43733 186.33 8.22267 186.096 8.036C185.863 7.84933 185.592 7.7 185.284 7.588C184.986 7.476 184.664 7.42 184.318 7.42C183.973 7.42 183.637 7.48067 183.31 7.602C182.993 7.72333 182.732 7.91 182.526 8.162C182.33 8.414 182.232 8.73133 182.232 9.114C182.232 9.48733 182.326 9.8 182.512 10.052C182.708 10.2947 182.946 10.4953 183.226 10.654C183.516 10.8033 183.8 10.934 184.08 11.046C184.332 11.1393 184.57 11.242 184.794 11.354C185.018 11.4567 185.2 11.5873 185.34 11.746C185.49 11.8953 185.564 12.082 185.564 12.306C185.564 12.558 185.471 12.7587 185.284 12.908C185.107 13.048 184.86 13.118 184.542 13.118C184.281 13.118 184.038 13.0713 183.814 12.978C183.6 12.8753 183.408 12.74 183.24 12.572C183.072 12.404 182.923 12.222 182.792 12.026ZM188.873 3.08H187.753V14H188.873V3.08ZM191.883 10.08V14H193.003V9.94C193.003 9.38 192.91 8.91333 192.723 8.54C192.546 8.16667 192.289 7.88667 191.953 7.7C191.626 7.51333 191.239 7.42 190.791 7.42C190.343 7.42 189.946 7.53667 189.601 7.77C189.265 8.00333 188.999 8.32067 188.803 8.722C188.607 9.114 188.509 9.56667 188.509 10.08H188.873C188.873 9.772 188.938 9.49667 189.069 9.254C189.209 9.01133 189.4 8.82 189.643 8.68C189.895 8.54 190.184 8.47 190.511 8.47C190.968 8.47 191.309 8.60533 191.533 8.876C191.766 9.14667 191.883 9.548 191.883 10.08ZM194.688 4.9C194.688 5.10533 194.763 5.28733 194.912 5.446C195.071 5.59533 195.253 5.67 195.458 5.67C195.673 5.67 195.855 5.59533 196.004 5.446C196.154 5.28733 196.228 5.10533 196.228 4.9C196.228 4.68533 196.154 4.50333 196.004 4.354C195.855 4.20467 195.673 4.13 195.458 4.13C195.253 4.13 195.071 4.20467 194.912 4.354C194.763 4.50333 194.688 4.68533 194.688 4.9ZM194.898 7.56V14H196.018V7.56H194.898ZM197.345 10.78C197.345 11.424 197.49 12.0027 197.779 12.516C198.078 13.02 198.479 13.4167 198.983 13.706C199.487 13.9953 200.052 14.14 200.677 14.14C201.312 14.14 201.876 13.9953 202.371 13.706C202.875 13.4167 203.272 13.02 203.561 12.516C203.86 12.0027 204.009 11.424 204.009 10.78C204.009 10.1267 203.86 9.548 203.561 9.044C203.272 8.54 202.875 8.14333 202.371 7.854C201.876 7.56467 201.312 7.42 200.677 7.42C200.052 7.42 199.487 7.56467 198.983 7.854C198.479 8.14333 198.078 8.54 197.779 9.044C197.49 9.548 197.345 10.1267 197.345 10.78ZM198.479 10.78C198.479 10.332 198.572 9.93533 198.759 9.59C198.955 9.23533 199.216 8.96 199.543 8.764C199.879 8.568 200.257 8.47 200.677 8.47C201.097 8.47 201.47 8.568 201.797 8.764C202.133 8.96 202.394 9.23533 202.581 9.59C202.777 9.93533 202.875 10.332 202.875 10.78C202.875 11.228 202.777 11.6247 202.581 11.97C202.394 12.3153 202.133 12.5907 201.797 12.796C201.47 12.992 201.097 13.09 200.677 13.09C200.257 13.09 199.879 12.992 199.543 12.796C199.216 12.5907 198.955 12.3153 198.759 11.97C198.572 11.6247 198.479 11.228 198.479 10.78ZM209.258 10.08V14H210.378V9.94C210.378 9.16533 210.177 8.554 209.776 8.106C209.384 7.64867 208.847 7.42 208.166 7.42C207.746 7.42 207.372 7.51333 207.046 7.7C206.728 7.88667 206.462 8.176 206.248 8.568V7.56H205.128V14H206.248V10.08C206.248 9.76267 206.313 9.48267 206.444 9.24C206.584 8.99733 206.775 8.81067 207.018 8.68C207.27 8.54 207.559 8.47 207.886 8.47C208.334 8.47 208.674 8.60533 208.908 8.876C209.141 9.14667 209.258 9.548 209.258 10.08ZM170.484 27.032L169.532 27.676C169.747 28.1053 170.022 28.5113 170.358 28.894C170.703 29.2673 171.1 29.5707 171.548 29.804C172.005 30.028 172.5 30.14 173.032 30.14C173.424 30.14 173.797 30.0747 174.152 29.944C174.516 29.8133 174.838 29.6267 175.118 29.384C175.407 29.1413 175.631 28.8473 175.79 28.502C175.958 28.1567 176.042 27.7693 176.042 27.34C176.042 26.892 175.963 26.5093 175.804 26.192C175.645 25.8653 175.44 25.59 175.188 25.366C174.945 25.1327 174.679 24.9413 174.39 24.792C174.101 24.6427 173.825 24.5213 173.564 24.428C172.995 24.232 172.542 24.036 172.206 23.84C171.879 23.6347 171.646 23.42 171.506 23.196C171.366 22.9627 171.296 22.7107 171.296 22.44C171.296 22.1227 171.417 21.838 171.66 21.586C171.903 21.3247 172.29 21.194 172.822 21.194C173.205 21.194 173.527 21.2687 173.788 21.418C174.059 21.5673 174.287 21.7587 174.474 21.992C174.661 22.2253 174.815 22.4633 174.936 22.706L175.958 22.118C175.799 21.7727 175.58 21.446 175.3 21.138C175.02 20.8207 174.679 20.564 174.278 20.368C173.886 20.1627 173.424 20.06 172.892 20.06C172.341 20.06 171.851 20.172 171.422 20.396C170.993 20.6107 170.657 20.9093 170.414 21.292C170.171 21.6747 170.05 22.1087 170.05 22.594C170.05 23.042 170.134 23.42 170.302 23.728C170.479 24.036 170.703 24.2973 170.974 24.512C171.245 24.7173 171.529 24.89 171.828 25.03C172.127 25.1607 172.397 25.268 172.64 25.352C173.013 25.4827 173.363 25.632 173.69 25.8C174.026 25.9587 174.297 26.1687 174.502 26.43C174.707 26.6913 174.81 27.0413 174.81 27.48C174.81 27.928 174.651 28.2967 174.334 28.586C174.017 28.8753 173.597 29.02 173.074 29.02C172.682 29.02 172.332 28.936 172.024 28.768C171.716 28.6 171.436 28.3667 171.184 28.068C170.941 27.7693 170.708 27.424 170.484 27.032ZM176.32 23.56V24.61H179.54V23.56H176.32ZM177.37 21.32V30H178.49V21.32H177.37ZM179.683 26.78C179.683 27.424 179.828 28.0027 180.117 28.516C180.416 29.02 180.817 29.4167 181.321 29.706C181.825 29.9953 182.39 30.14 183.015 30.14C183.65 30.14 184.215 29.9953 184.709 29.706C185.213 29.4167 185.61 29.02 185.899 28.516C186.198 28.0027 186.347 27.424 186.347 26.78C186.347 26.1267 186.198 25.548 185.899 25.044C185.61 24.54 185.213 24.1433 184.709 23.854C184.215 23.5647 183.65 23.42 183.015 23.42C182.39 23.42 181.825 23.5647 181.321 23.854C180.817 24.1433 180.416 24.54 180.117 25.044C179.828 25.548 179.683 26.1267 179.683 26.78ZM180.817 26.78C180.817 26.332 180.911 25.9353 181.097 25.59C181.293 25.2353 181.555 24.96 181.881 24.764C182.217 24.568 182.595 24.47 183.015 24.47C183.435 24.47 183.809 24.568 184.135 24.764C184.471 24.96 184.733 25.2353 184.919 25.59C185.115 25.9353 185.213 26.332 185.213 26.78C185.213 27.228 185.115 27.6247 184.919 27.97C184.733 28.3153 184.471 28.5907 184.135 28.796C183.809 28.992 183.435 29.09 183.015 29.09C182.595 29.09 182.217 28.992 181.881 28.796C181.555 28.5907 181.293 28.3153 181.097 27.97C180.911 27.6247 180.817 27.228 180.817 26.78ZM188.586 23.56H187.466V30H188.586V23.56ZM190.532 24.792L191.148 23.868C190.98 23.6907 190.793 23.574 190.588 23.518C190.392 23.4527 190.177 23.42 189.944 23.42C189.645 23.42 189.351 23.5367 189.062 23.77C188.772 24.0033 188.534 24.3207 188.348 24.722C188.17 25.114 188.082 25.5667 188.082 26.08H188.586C188.586 25.772 188.614 25.4967 188.67 25.254C188.735 25.0113 188.847 24.82 189.006 24.68C189.164 24.54 189.384 24.47 189.664 24.47C189.85 24.47 190.004 24.498 190.126 24.554C190.247 24.6007 190.382 24.68 190.532 24.792ZM194.132 30.14C194.822 30.14 195.42 30.0047 195.924 29.734C196.437 29.454 196.862 29.0433 197.198 28.502L196.288 27.928C196.054 28.32 195.77 28.614 195.434 28.81C195.098 28.9967 194.71 29.09 194.272 29.09C193.833 29.09 193.46 28.9967 193.152 28.81C192.844 28.6233 192.61 28.3527 192.452 27.998C192.293 27.6433 192.214 27.214 192.214 26.71C192.223 26.2153 192.307 25.8 192.466 25.464C192.634 25.1187 192.867 24.8573 193.166 24.68C193.474 24.4933 193.842 24.4 194.272 24.4C194.636 24.4 194.953 24.4793 195.224 24.638C195.494 24.7967 195.704 25.016 195.854 25.296C196.012 25.576 196.092 25.9073 196.092 26.29C196.092 26.3553 196.078 26.4393 196.05 26.542C196.022 26.6353 195.994 26.7053 195.966 26.752L196.414 26.108H191.794V27.06H197.296C197.296 27.0413 197.296 26.9993 197.296 26.934C197.305 26.8593 197.31 26.7893 197.31 26.724C197.31 26.0427 197.188 25.4547 196.946 24.96C196.703 24.4653 196.353 24.0873 195.896 23.826C195.448 23.5553 194.906 23.42 194.272 23.42C193.637 23.42 193.077 23.56 192.592 23.84C192.116 24.12 191.742 24.512 191.472 25.016C191.21 25.52 191.08 26.108 191.08 26.78C191.08 27.4427 191.206 28.026 191.458 28.53C191.719 29.034 192.078 29.4307 192.536 29.72C193.002 30 193.534 30.14 194.132 30.14Z" fill="#B5B5B5"></path></svg>