<svg width="118" height="27" viewBox="0 0 118 27" fill="none" xmlns="http://www.w3.org/2000/svg">
<path d="M8.04 26.48C5.56 26.48 3.64 25.7067 2.28 24.16C0.946667 22.6133 0.28 20.3467 0.28 17.36V6.16H5.36V16.88C5.36 18.5867 5.70667 19.8933 6.4 20.8C7.09333 21.7067 8.18667 22.16 9.68 22.16C11.0933 22.16 12.2533 21.6533 13.16 20.64C14.0933 19.6267 14.56 18.2133 14.56 16.4V6.16H19.68V26H15.16L14.76 22.64C14.1467 23.8133 13.2533 24.7467 12.08 25.44C10.9333 26.1333 9.58667 26.48 8.04 26.48ZM23.7359 26V6.16H28.2559L28.6959 8.84C29.3359 7.88 30.1759 7.12 31.2159 6.56C32.2826 5.97333 33.5093 5.68 34.8959 5.68C37.9626 5.68 40.1359 6.86667 41.4159 9.24C42.1359 8.14667 43.0959 7.28 44.2959 6.64C45.5226 6 46.8559 5.68 48.2959 5.68C50.8826 5.68 52.8693 6.45333 54.2559 8C55.6426 9.54667 56.3359 11.8133 56.3359 14.8V26H51.2159V15.28C51.2159 13.5733 50.8826 12.2667 50.2159 11.36C49.5759 10.4533 48.5759 10 47.2159 10C45.8293 10 44.7093 10.5067 43.8559 11.52C43.0293 12.5333 42.6159 13.9467 42.6159 15.76V26H37.4959V15.28C37.4959 13.5733 37.1626 12.2667 36.4959 11.36C35.8293 10.4533 34.8026 10 33.4159 10C32.0559 10 30.9493 10.5067 30.0959 11.52C29.2693 12.5333 28.8559 13.9467 28.8559 15.76V26H23.7359ZM66.8369 26.48C65.1302 26.48 63.7302 26.2133 62.6369 25.68C61.5435 25.12 60.7302 24.3867 60.1969 23.48C59.6635 22.5733 59.3969 21.5733 59.3969 20.48C59.3969 18.64 60.1169 17.1467 61.5569 16C62.9969 14.8533 65.1569 14.28 68.0369 14.28H73.0769V13.8C73.0769 12.44 72.6902 11.44 71.9169 10.8C71.1435 10.16 70.1835 9.84 69.0369 9.84C67.9969 9.84 67.0902 10.0933 66.3169 10.6C65.5435 11.08 65.0635 11.8 64.8769 12.76H59.8769C60.0102 11.32 60.4902 10.0667 61.3169 9C62.1702 7.93333 63.2635 7.12 64.5969 6.56C65.9302 5.97333 67.4235 5.68 69.0769 5.68C71.9035 5.68 74.1302 6.38667 75.7569 7.8C77.3835 9.21333 78.1969 11.2133 78.1969 13.8V26H73.8369L73.3569 22.8C72.7702 23.8667 71.9435 24.7467 70.8769 25.44C69.8369 26.1333 68.4902 26.48 66.8369 26.48ZM67.9969 22.48C69.4635 22.48 70.5969 22 71.3969 21.04C72.2235 20.08 72.7435 18.8933 72.9569 17.48H68.5969C67.2369 17.48 66.2635 17.7333 65.6769 18.24C65.0902 18.72 64.7969 19.32 64.7969 20.04C64.7969 20.8133 65.0902 21.4133 65.6769 21.84C66.2635 22.2667 67.0369 22.48 67.9969 22.48ZM81.8828 26V6.16H86.4428L86.9228 9.88C87.6428 8.6 88.6161 7.58667 89.8428 6.84C91.0961 6.06667 92.5628 5.68 94.2428 5.68V11.08H92.8028C91.6828 11.08 90.6828 11.2533 89.8028 11.6C88.9228 11.9467 88.2295 12.5467 87.7228 13.4C87.2428 14.2533 87.0028 15.44 87.0028 16.96V26H81.8828ZM105.382 26C103.302 26 101.636 25.4933 100.382 24.48C99.1289 23.4667 98.5022 21.6667 98.5022 19.08V10.44H95.1022V6.16H98.5022L99.1022 0.84H103.622V6.16H108.982V10.44H103.622V19.12C103.622 20.08 103.822 20.7467 104.222 21.12C104.649 21.4667 105.369 21.64 106.382 21.64H108.862V26H105.382Z" fill="black"/>
<path d="M114.378 26.28C113.445 26.28 112.671 25.9867 112.058 25.4C111.471 24.8133 111.178 24.1067 111.178 23.28C111.178 22.4267 111.471 21.7067 112.058 21.12C112.671 20.5333 113.445 20.24 114.378 20.24C115.311 20.24 116.071 20.5333 116.658 21.12C117.271 21.7067 117.578 22.4267 117.578 23.28C117.578 24.1067 117.271 24.8133 116.658 25.4C116.071 25.9867 115.311 26.28 114.378 26.28Z" fill="#72A398"/>
</svg>
