<svg xmlns="http://www.w3.org/2000/svg" width="158" height="29" viewBox="0 0 158 29" fill="none"><path d="M26.064 16.164L19.152 0.539999L12.312 16.164L7.344 1.8H0.144L11.052 28.476L19.152 13.284L27.288 28.476L38.196 1.8H30.96L26.064 16.164ZM43.9715 27H56.6795V21.996H43.9715V27ZM43.9715 6.804H56.6795V1.8H43.9715V6.804ZM43.9715 16.2H55.9595V11.304H43.9715V16.2ZM39.9395 1.8V27H45.7715V1.8H39.9395ZM60.5509 1.8V27H66.7429V1.8H60.5509ZM75.5381 14.472H80.2541C82.0061 14.472 83.5421 14.232 84.8621 13.752C86.2061 13.248 87.2621 12.528 88.0301 11.592C88.8221 10.656 89.2181 9.528 89.2181 8.208C89.2181 6.768 88.8221 5.58 88.0301 4.644C87.2621 3.684 86.2061 2.976 84.8621 2.52C83.5421 2.04 82.0061 1.8 80.2541 1.8H71.0021V27H80.8661C82.8581 27 84.5861 26.76 86.0501 26.28C87.5141 25.776 88.6421 25.008 89.4341 23.976C90.2501 22.944 90.6581 21.588 90.6581 19.908C90.6581 18.636 90.3701 17.556 89.7941 16.668C89.2421 15.756 88.4981 15.012 87.5621 14.436C86.6261 13.836 85.5821 13.404 84.4301 13.14C83.2781 12.876 82.0901 12.744 80.8661 12.744H75.5381V16.056H80.1821C80.7821 16.056 81.3221 16.116 81.8021 16.236C82.3061 16.332 82.7501 16.5 83.1341 16.74C83.5181 16.98 83.8181 17.292 84.0341 17.676C84.2501 18.06 84.3581 18.516 84.3581 19.044C84.3581 19.86 84.1661 20.508 83.7821 20.988C83.4221 21.444 82.9301 21.78 82.3061 21.996C81.6821 22.188 80.9741 22.284 80.1821 22.284H77.0861V6.516H79.6061C80.6621 6.516 81.4781 6.732 82.0541 7.164C82.6301 7.596 82.9181 8.244 82.9181 9.108C82.9181 9.684 82.7861 10.176 82.5221 10.584C82.2581 10.968 81.8741 11.268 81.3701 11.484C80.8901 11.7 80.3021 11.808 79.6061 11.808H75.5381V14.472ZM98.8324 14.4C98.8324 12.912 99.1204 11.604 99.6964 10.476C100.296 9.324 101.124 8.424 102.18 7.776C103.26 7.128 104.52 6.804 105.96 6.804C107.424 6.804 108.684 7.128 109.74 7.776C110.796 8.424 111.612 9.324 112.188 10.476C112.764 11.604 113.052 12.912 113.052 14.4C113.052 15.888 112.752 17.208 112.152 18.36C111.576 19.488 110.748 20.376 109.668 21.024C108.612 21.672 107.376 21.996 105.96 21.996C104.52 21.996 103.26 21.672 102.18 21.024C101.124 20.376 100.296 19.488 99.6964 18.36C99.1204 17.208 98.8324 15.888 98.8324 14.4ZM92.3884 14.4C92.3884 16.344 92.7124 18.132 93.3604 19.764C94.0324 21.396 94.9684 22.812 96.1684 24.012C97.3924 25.212 98.8324 26.148 100.488 26.82C102.144 27.468 103.968 27.792 105.96 27.792C107.928 27.792 109.74 27.468 111.396 26.82C113.052 26.148 114.48 25.212 115.68 24.012C116.904 22.812 117.84 21.396 118.488 19.764C119.16 18.132 119.496 16.344 119.496 14.4C119.496 12.456 119.16 10.68 118.488 9.072C117.816 7.464 116.868 6.072 115.644 4.896C114.42 3.72 112.98 2.82 111.324 2.196C109.692 1.548 107.904 1.224 105.96 1.224C104.04 1.224 102.252 1.548 100.596 2.196C98.9404 2.82 97.5004 3.72 96.2764 4.896C95.0524 6.072 94.0924 7.464 93.3964 9.072C92.7244 10.68 92.3884 12.456 92.3884 14.4ZM127.319 14.4C127.319 12.912 127.607 11.604 128.183 10.476C128.783 9.324 129.611 8.424 130.667 7.776C131.747 7.128 133.007 6.804 134.447 6.804C135.911 6.804 137.171 7.128 138.227 7.776C139.283 8.424 140.099 9.324 140.675 10.476C141.251 11.604 141.539 12.912 141.539 14.4C141.539 15.888 141.239 17.208 140.639 18.36C140.063 19.488 139.235 20.376 138.155 21.024C137.099 21.672 135.863 21.996 134.447 21.996C133.007 21.996 131.747 21.672 130.667 21.024C129.611 20.376 128.783 19.488 128.183 18.36C127.607 17.208 127.319 15.888 127.319 14.4ZM120.875 14.4C120.875 16.344 121.199 18.132 121.847 19.764C122.519 21.396 123.455 22.812 124.655 24.012C125.879 25.212 127.319 26.148 128.975 26.82C130.631 27.468 132.455 27.792 134.447 27.792C136.415 27.792 138.227 27.468 139.883 26.82C141.539 26.148 142.967 25.212 144.167 24.012C145.391 22.812 146.327 21.396 146.975 19.764C147.647 18.132 147.983 16.344 147.983 14.4C147.983 12.456 147.647 10.68 146.975 9.072C146.303 7.464 145.355 6.072 144.131 4.896C142.907 3.72 141.467 2.82 139.811 2.196C138.179 1.548 136.391 1.224 134.447 1.224C132.527 1.224 130.739 1.548 129.083 2.196C127.427 2.82 125.987 3.72 124.763 4.896C123.539 6.072 122.579 7.464 121.883 9.072C121.211 10.68 120.875 12.456 120.875 14.4Z" fill="black"></path><path d="M150.549 24.552C150.549 25.464 150.873 26.244 151.521 26.892C152.169 27.54 152.973 27.864 153.933 27.864C154.941 27.864 155.757 27.54 156.381 26.892C157.005 26.244 157.317 25.464 157.317 24.552C157.317 23.64 157.005 22.86 156.381 22.212C155.757 21.564 154.941 21.24 153.933 21.24C152.973 21.24 152.169 21.564 151.521 22.212C150.873 22.86 150.549 23.64 150.549 24.552Z" fill="#72A398"></path></svg>