<svg width="312" height="22" viewBox="0 0 312 22" fill="none" xmlns="http://www.w3.org/2000/svg">
<path d="M19.86 7.4C19.86 7.32 19.86 7.26 19.86 7.22C19.86 7.14 19.84 7.08 19.8 7.04L19.74 6.5L19.56 5.84C19.52 5.8 19.5 5.74 19.5 5.66C19.42 5.42 19.38 5.24 19.38 5.12L19.2 4.52L19.08 4.34C19.08 4.26 19.06 4.14 19.02 3.98L18.18 1.94L17.94 1.46L17.64 1.04C17.56 0.959999 17.52 0.899999 17.52 0.859997L17.04 0.559997C16.92 0.479998 16.72 0.399999 16.44 0.32L16.14 0.199998H15.48C15.44 0.239998 15.36 0.259997 15.24 0.259997C14.6 0.419998 14.08 0.819999 13.68 1.46L13.56 1.76C13.48 2.08 13.44 2.32 13.44 2.48V2.66L13.56 3.2L13.8 3.8C13.84 3.8 13.86 3.8 13.86 3.8L14.04 4.22L14.58 5.6V5.72C14.62 5.76 14.66 5.86 14.7 6.02L14.94 6.86V6.98C15.02 7.1 15.06 7.3 15.06 7.58C15.18 7.82 15.24 8.08 15.24 8.36C15.76 11.6 15.36 14.76 14.04 17.84C13.96 17.92 13.92 18 13.92 18.08H13.86C13.86 18.12 13.84 18.2 13.8 18.32L13.74 18.38C13.58 18.78 13.48 19.08 13.44 19.28V19.52L13.5 20.06L13.56 20.24L13.86 20.78L14.22 21.2C14.78 21.6 15.38 21.78 16.02 21.74C16.42 21.74 16.82 21.6 17.22 21.32H17.28C17.32 21.24 17.42 21.14 17.58 21.02L17.76 20.84V20.78L18.42 19.58V19.52L18.96 18.2L19.02 17.84L19.38 16.76L19.68 15.56C20.08 13.8 20.24 11.86 20.16 9.74C20.08 8.7 19.98 7.92 19.86 7.4ZM7.8 10.52C7.8 10.32 7.76 10.02 7.68 9.62L7.26 9.14C7.18 9.06 7.14 9 7.14 8.96C7.02 8.88 6.92 8.78 6.84 8.66C6.76 8.66 6.72 8.62 6.72 8.54L6.42 8.24L6.24 8.12C6.12 8.04 6.02 7.94 5.94 7.82L5.82 7.76L5.46 7.46C5.46 7.42 5.46 7.4 5.46 7.4L4.56 6.74L4.02 6.44L3.9 6.32L2.82 5.72C2.58 5.64 2.42 5.6 2.34 5.6L1.38 5.66L1.14 5.78H1.08L1.02 5.84C0.58 6.16 0.28 6.54 0.12 6.98L0 7.34V7.94C0.12 8.34 0.26 8.66 0.42 8.9L0.9 9.32L1.02 9.38C1.1 9.46 1.22 9.54 1.38 9.62L1.56 9.74C1.72 9.82 1.84 9.9 1.92 9.98L2.04 10.04C2.12 10.08 2.24 10.18 2.4 10.34L2.52 10.4L2.88 10.7L2.94 10.82C3.02 10.86 3.12 10.92 3.24 11L3.42 11.24C3.54 11.32 3.64 11.42 3.72 11.54L3.84 11.66C3.92 11.74 4 11.86 4.08 12.02L4.2 12.14L4.5 12.62C4.66 12.78 4.76 12.92 4.8 13.04L4.86 13.16C4.94 13.24 5.02 13.36 5.1 13.52L5.22 13.82C5.3 13.94 5.34 14.04 5.34 14.12L5.46 14.3L5.64 14.9L5.82 15.32V15.56L6 16.04V16.22C6.08 16.46 6.12 16.64 6.12 16.76V16.88C6.12 16.92 6.14 16.94 6.18 16.94C6.22 16.78 6.34 16.52 6.54 16.16L6.78 15.68C7.58 14.12 7.92 12.4 7.8 10.52ZM13.56 16.52V16.7C13.6 16.82 13.62 17.02 13.62 17.3C13.7 17.3 13.7 17.34 13.62 17.42L13.68 18.08L13.8 17.84C15.12 14.76 15.54 11.6 15.06 8.36L14.34 7.4C14.34 7.36 14.32 7.34 14.28 7.34L13.98 6.98L13.92 6.86C13.8 6.78 13.7 6.68 13.62 6.56L13.5 6.38C13.38 6.3 13.28 6.2 13.2 6.08L11.88 4.82L11.76 4.76L11.16 4.28C11.08 4.2 11 4.16 10.92 4.16C10.88 4.12 10.86 4.06 10.86 3.98C10.74 3.94 10.62 3.86 10.5 3.74H10.38C11.06 4.82 11.62 6.14 12.06 7.7C12.5 9.22 12.66 10.7 12.54 12.14C12.54 12.46 12.52 12.7 12.48 12.86L12.78 13.46C12.82 13.62 12.84 13.74 12.84 13.82L12.96 14L13.38 15.8C13.42 15.84 13.44 15.9 13.44 15.98L13.56 16.52ZM10.2 3.74L10.14 3.68C10.1 3.64 10.04 3.58 9.96 3.5L9.84 3.38C9.76 3.38 9.72 3.34 9.72 3.26L9.3 3.08L8.58 2.9H8.4C8.24 2.9 8 2.94 7.68 3.02C7.68 3.06 7.64 3.08 7.56 3.08L7.26 3.26H7.2L6.78 3.68V3.74L6.72 3.8C6.68 3.8 6.66 3.82 6.66 3.86L6.48 4.28C6.36 4.52 6.3 4.76 6.3 5V5.24L6.36 5.72L6.42 5.9L6.66 6.32C6.7 6.32 6.72 6.36 6.72 6.44C6.84 6.52 6.92 6.66 6.96 6.86C7 6.9 7.02 6.94 7.02 6.98C7.14 7.1 7.2 7.24 7.2 7.4L7.32 7.58C7.4 7.74 7.44 7.9 7.44 8.06C7.48 8.06 7.5 8.1 7.5 8.18L7.68 8.66V8.84C7.72 8.96 7.76 9.14 7.8 9.38L7.86 9.62C7.94 10.02 7.98 10.32 7.98 10.52C8.14 12.24 7.82 13.98 7.02 15.74L6.84 15.98C6.6 16.42 6.44 16.76 6.36 17L6.24 17.66C6.28 17.7 6.3 17.76 6.3 17.84L6.42 18.44L6.72 18.92L7.14 19.34C7.18 19.34 7.22 19.36 7.26 19.4L7.62 19.58L8.34 19.76H8.58L9.3 19.58L9.78 19.34L10.14 18.98L10.26 18.8C10.34 18.64 10.4 18.54 10.44 18.5L11.1 17.18L11.64 15.86V15.74C11.64 15.66 11.68 15.58 11.76 15.5L11.94 14.66C11.98 14.58 12 14.48 12 14.36L12.18 13.58C12.18 13.5 12.2 13.42 12.24 13.34C12.24 13.14 12.26 12.98 12.3 12.86C12.3 12.54 12.32 12.3 12.36 12.14C12.4 10.66 12.24 9.16 11.88 7.64C11.56 6.36 11 5.06 10.2 3.74ZM58.62 11.24C58.9 11.28 59.36 11.3 60 11.3V10.34H58.68C58.36 10.38 58.2 10.22 58.2 9.86V7.16C57.68 7.28 57.38 7.4 57.3 7.52C57.22 7.6 57.18 7.86 57.18 8.3V9.5C57.22 9.82 57.18 10.06 57.06 10.22C56.94 10.34 56.72 10.38 56.4 10.34C56.2 10.3 56.08 10.32 56.04 10.4C56 10.48 55.98 10.62 55.98 10.82C55.98 10.98 56 11.1 56.04 11.18C56.12 11.22 56.24 11.26 56.4 11.3C56.8 11.3 57.02 11.34 57.06 11.42C57.14 11.5 57.18 11.74 57.18 12.14V17.6C57.18 18.56 57.58 19.1 58.38 19.22C59.02 19.3 59.56 19.26 60 19.1V18.2C59.88 18.12 59.74 18.1 59.58 18.14L59.4 18.2C58.96 18.24 58.64 18.2 58.44 18.08C58.28 17.92 58.2 17.64 58.2 17.24V11.72C58.2 11.52 58.22 11.4 58.26 11.36C58.34 11.28 58.46 11.24 58.62 11.24ZM36.84 8.78C37.12 8.58 37.26 8.34 37.26 8.06C37.3 7.74 37.18 7.46 36.9 7.22L36.48 6.92C36.36 6.76 36.36 6.6 36.48 6.44L36.54 6.38C36.62 6.3 36.68 6.24 36.72 6.2C36.92 6 37.02 5.78 37.02 5.54C37.06 5.26 36.98 5.02 36.78 4.82V4.76C36.74 4.72 36.72 4.68 36.72 4.64C37 4.72 37.22 4.64 37.38 4.4C36.74 4.4 36.24 4.42 35.88 4.46C35.56 4.46 35.3 4.54 35.1 4.7C34.74 5.02 34.6 5.38 34.68 5.78C34.76 6.18 34.98 6.44 35.34 6.56H35.46C35.58 6.6 35.66 6.62 35.7 6.62C35.78 6.58 35.82 6.6 35.82 6.68C35.78 6.84 35.82 7.02 35.94 7.22H35.7C35.22 7.3 34.86 7.44 34.62 7.64C34.38 7.8 34.26 8.02 34.26 8.3C34.3 8.58 34.46 8.8 34.74 8.96C35.06 9.12 35.42 9.18 35.82 9.14C36.26 9.1 36.6 8.98 36.84 8.78ZM35.52 6.2C35.36 5.96 35.24 5.66 35.16 5.3C35.16 4.86 35.38 4.64 35.82 4.64C35.98 4.64 36.12 4.74 36.24 4.94C36.44 5.22 36.54 5.52 36.54 5.84C36.46 6.08 36.32 6.26 36.12 6.38C35.92 6.46 35.72 6.4 35.52 6.2ZM35.22 7.58C35.42 7.46 35.66 7.4 35.94 7.4C36.1 7.4 36.28 7.48 36.48 7.64C36.68 7.8 36.8 7.96 36.84 8.12C36.92 8.44 36.8 8.66 36.48 8.78C36 8.98 35.56 8.94 35.16 8.66C34.96 8.5 34.86 8.32 34.86 8.12C34.9 7.88 35.02 7.7 35.22 7.58ZM26.04 7.4C26.6 7.32 27.06 7.24 27.42 7.16C27.54 7.12 27.6 7.04 27.6 6.92V6.56C27.6 6.24 27.68 6 27.84 5.84H27.48C27.16 5.88 26.94 5.9 26.82 5.9C26.7 5.86 26.58 5.88 26.46 5.96C26.34 6.04 26.24 6.08 26.16 6.08C26.28 6.12 26.44 6.12 26.64 6.08H26.82C26.94 6.08 27 6.14 27 6.26V6.86C27 6.98 26.94 7.04 26.82 7.04C26.58 7.16 26.3 7.18 25.98 7.1C25.42 7.02 24.98 6.78 24.66 6.38C24.34 5.94 24.2 5.44 24.24 4.88C24.32 4.16 24.62 3.7 25.14 3.5C25.82 3.22 26.38 3.28 26.82 3.68C26.94 3.76 27 3.82 27 3.86C27.04 3.9 27.02 3.98 26.94 4.1C27.06 4.1 27.18 4.02 27.3 3.86L27.48 3.74C27.6 3.66 27.6 3.58 27.48 3.5C26.72 3.14 26 3.04 25.32 3.2C24.76 3.32 24.32 3.62 24 4.1C23.68 4.54 23.56 5.06 23.64 5.66C23.72 6.22 23.98 6.66 24.42 6.98C24.86 7.3 25.4 7.44 26.04 7.4ZM32.88 4.34C32.44 4.34 32.06 4.5 31.74 4.82C31.42 5.1 31.26 5.46 31.26 5.9C31.3 6.3 31.46 6.64 31.74 6.92C32.02 7.2 32.38 7.34 32.82 7.34C33.26 7.34 33.62 7.2 33.9 6.92C34.22 6.6 34.38 6.24 34.38 5.84C34.38 5.4 34.22 5.04 33.9 4.76C33.62 4.48 33.28 4.34 32.88 4.34ZM33.12 7.1C32.92 7.18 32.72 7.16 32.52 7.04C32.36 6.92 32.24 6.74 32.16 6.5C31.92 6.18 31.84 5.76 31.92 5.24C31.96 4.92 32.14 4.7 32.46 4.58C32.82 4.46 33.12 4.56 33.36 4.88C33.56 5.12 33.7 5.48 33.78 5.96V6.02C33.78 6.62 33.56 6.98 33.12 7.1ZM33.72 10.34C33.56 10.22 33.36 10.22 33.12 10.34C32.88 10.46 32.72 10.64 32.64 10.88L31.38 17.12C31.34 17.44 31.24 17.66 31.08 17.78L30.54 15.32C30.1 13.4 29.8 11.96 29.64 11C29.56 10.72 29.46 10.54 29.34 10.46C29.26 10.34 29.08 10.3 28.8 10.34C28.52 10.34 28.3 10.38 28.14 10.46C28.02 10.5 27.94 10.66 27.9 10.94L26.4 17.72H26.28L25.68 15.14L24.78 10.7C24.74 10.46 24.66 10.34 24.54 10.34C24.42 10.3 24.28 10.28 24.12 10.28L23.88 10.34C23.72 10.34 23.62 10.38 23.58 10.46C23.58 10.54 23.6 10.64 23.64 10.76L23.7 10.88C24.5 14.32 25.08 16.92 25.44 18.68C25.56 19.04 25.78 19.2 26.1 19.16H26.4C26.6 19.16 26.76 19.14 26.88 19.1C27 19.02 27.08 18.86 27.12 18.62C27.24 17.94 27.46 16.92 27.78 15.56L28.68 11.78C28.8 11.9 28.9 12.1 28.98 12.38L30.3 18.38C30.34 18.7 30.42 18.92 30.54 19.04C30.7 19.16 30.92 19.2 31.2 19.16H31.44C31.6 19.12 31.72 19.08 31.8 19.04C31.88 19 31.94 18.88 31.98 18.68L33.78 10.7C33.86 10.54 33.84 10.42 33.72 10.34ZM29.52 7.34C29.96 7.34 30.32 7.2 30.6 6.92C30.92 6.64 31.08 6.28 31.08 5.84C31.08 5.4 30.94 5.04 30.66 4.76C30.38 4.48 30.02 4.34 29.58 4.34C29.18 4.34 28.82 4.5 28.5 4.82C28.18 5.1 28.02 5.46 28.02 5.9C28.02 6.3 28.16 6.64 28.44 6.92C28.72 7.2 29.08 7.34 29.52 7.34ZM28.68 5.18C28.72 4.86 28.92 4.68 29.28 4.64C29.68 4.56 29.96 4.66 30.12 4.94C30.36 5.3 30.48 5.7 30.48 6.14C30.48 6.3 30.46 6.44 30.42 6.56C30.34 6.88 30.14 7.08 29.82 7.16C29.54 7.2 29.3 7.1 29.1 6.86C28.7 6.38 28.56 5.82 28.68 5.18ZM39.78 7.28C40.06 7.36 40.34 7.38 40.62 7.34C40.9 7.26 41.14 7.1 41.34 6.86H41.28C40.84 7.06 40.44 7.08 40.08 6.92C39.76 6.72 39.54 6.38 39.42 5.9C39.38 5.82 39.4 5.78 39.48 5.78C39.56 5.74 39.64 5.72 39.72 5.72C39.8 5.72 39.86 5.72 39.9 5.72L41.22 5.18C41.26 5.18 41.28 5.12 41.28 5C41.16 4.68 40.92 4.48 40.56 4.4C40.08 4.28 39.66 4.38 39.3 4.7C38.94 5.02 38.78 5.44 38.82 5.96C38.82 6.24 38.9 6.52 39.06 6.8C39.26 7.04 39.5 7.2 39.78 7.28ZM39.84 4.64C40.16 4.52 40.42 4.6 40.62 4.88C40.7 5.08 40.66 5.2 40.5 5.24L39.54 5.66C39.46 5.7 39.4 5.72 39.36 5.72C39.36 5.68 39.36 5.62 39.36 5.54V5.48C39.36 5.04 39.52 4.76 39.84 4.64ZM37.62 3.08C37.74 3.08 37.8 3.14 37.8 3.26C37.76 3.98 37.74 5.06 37.74 6.5V6.62C37.74 6.9 37.68 7.1 37.56 7.22C37.68 7.22 37.86 7.22 38.1 7.22C38.42 7.26 38.66 7.24 38.82 7.16V7.1L38.58 7.04C38.42 7.04 38.34 6.96 38.34 6.8V5.66C38.3 4.66 38.3 3.9 38.34 3.38V3.26C38.42 3.1 38.52 2.98 38.64 2.9C38 2.78 37.58 2.84 37.38 3.08H37.62ZM41.28 18.32C41.32 18.2 41.32 17.98 41.28 17.66V12.8C41.2 11.36 40.54 10.5 39.3 10.22C38.54 10.06 37.88 10.06 37.32 10.22C36.4 10.46 35.76 11.02 35.4 11.9C35.24 12.22 35.18 12.42 35.22 12.5C35.26 12.54 35.46 12.6 35.82 12.68C36.1 12.68 36.26 12.58 36.3 12.38C36.34 12.06 36.52 11.78 36.84 11.54C37.48 11.02 38.3 10.92 39.3 11.24C39.9 11.48 40.2 12.02 40.2 12.86V13.52C40.24 13.76 40.12 13.86 39.84 13.82C39.16 13.58 38.44 13.5 37.68 13.58C36.92 13.66 36.3 13.94 35.82 14.42C35.34 14.86 35.08 15.4 35.04 16.04C35 16.92 35.16 17.64 35.52 18.2C35.92 18.76 36.5 19.12 37.26 19.28C38.34 19.48 39.32 19.16 40.2 18.32C40.16 19.04 40.46 19.32 41.1 19.16C41.26 19.12 41.34 19.06 41.34 18.98C41.38 18.86 41.38 18.74 41.34 18.62C41.3 18.46 41.28 18.36 41.28 18.32ZM40.26 15.62C40.22 15.7 40.2 15.82 40.2 15.98C40.2 16.82 39.88 17.48 39.24 17.96C38.64 18.44 37.94 18.54 37.14 18.26C36.34 17.94 35.98 17.26 36.06 16.22C36.1 15.78 36.24 15.42 36.48 15.14C36.76 14.82 37.1 14.62 37.5 14.54C37.94 14.46 38.6 14.5 39.48 14.66H39.54C39.82 14.74 40.02 14.86 40.14 15.02C40.26 15.14 40.3 15.34 40.26 15.62ZM50.4 14.96C51.16 14.96 51.92 14.96 52.68 14.96H53.46C54.1 14.92 54.58 14.92 54.9 14.96C55.22 14.96 55.38 14.82 55.38 14.54C55.34 13.9 55.3 13.44 55.26 13.16C55.18 12.64 55.04 12.2 54.84 11.84C54.32 10.68 53.42 10.1 52.14 10.1C50.78 10.18 49.88 10.78 49.44 11.9C48.72 13.7 48.7 15.52 49.38 17.36C49.66 18.12 50.1 18.66 50.7 18.98C51.3 19.3 52 19.4 52.8 19.28C53.44 19.24 53.98 18.98 54.42 18.5C54.9 17.98 55.2 17.34 55.32 16.58C55.32 16.42 55.3 16.32 55.26 16.28C55.22 16.24 55.14 16.2 55.02 16.16C54.78 16.08 54.58 16.08 54.42 16.16C54.26 16.24 54.16 16.42 54.12 16.7C54.04 17.18 53.84 17.56 53.52 17.84C53.24 18.12 52.88 18.28 52.44 18.32C51.44 18.36 50.72 17.9 50.28 16.94C50.16 16.58 50.06 16.04 49.98 15.32C49.98 15.04 50.12 14.92 50.4 14.96ZM51.84 11.12C53.08 11 53.86 11.66 54.18 13.1C54.26 13.54 54.26 13.8 54.18 13.88C54.14 13.96 53.9 14 53.46 14H50.34C50.18 14 50.08 13.94 50.04 13.82C49.92 13.34 50.06 12.78 50.46 12.14C50.86 11.5 51.32 11.16 51.84 11.12ZM47.34 12.92C47.34 10.96 47.34 9.02 47.34 7.1C47.42 6.74 47.26 6.56 46.86 6.56C46.66 6.56 46.52 6.6 46.44 6.68C46.36 6.72 46.32 6.86 46.32 7.1V18.62C46.32 18.86 46.36 19.02 46.44 19.1C46.52 19.14 46.66 19.16 46.86 19.16C47.06 19.16 47.18 19.12 47.22 19.04C47.3 18.96 47.34 18.82 47.34 18.62V12.92ZM44.22 12.86C44.22 10.94 44.22 9.02 44.22 7.1C44.22 6.74 44.06 6.56 43.74 6.56C43.54 6.56 43.4 6.6 43.32 6.68C43.24 6.76 43.2 6.9 43.2 7.1C43.24 8.82 43.24 11.38 43.2 14.78V18.62C43.2 18.82 43.24 18.96 43.32 19.04C43.4 19.12 43.54 19.16 43.74 19.16C43.94 19.16 44.06 19.12 44.1 19.04C44.18 18.96 44.22 18.82 44.22 18.62V12.86ZM120.18 2.84C120.22 2.84 120.28 2.84 120.36 2.84C120.8 2.76 121.14 2.68 121.38 2.6C121.82 2.48 121.88 2.24 121.56 1.88C121.48 1.72 121.28 1.52 120.96 1.28H120.9C120.7 1.08 120.36 0.899999 119.88 0.739998C119.04 0.46 117.96 0.479999 116.64 0.799998H116.58L116.46 0.859997L115.92 1.04L115.02 1.4L114.18 1.82H114.12C114.08 1.82 114.02 1.86 113.94 1.94C113.3 2.26 112.62 2.68 111.9 3.2C107.7 6.12 104.14 9.88 101.22 14.48C99.9 16.56 99.04 18.52 98.64 20.36C98.6 20.52 98.62 20.74 98.7 21.02C98.78 21.3 98.88 21.46 99 21.5C99.16 21.5 99.28 21.42 99.36 21.26L99.42 21.14C99.98 19.86 100.44 18.92 100.8 18.32C101.6 17 102.56 15.62 103.68 14.18C104.52 13.1 105.62 11.82 106.98 10.34C110.74 6.26 115.14 3.76 120.18 2.84ZM92.22 8.42C92.02 7.42 91.28 6.78 90 6.5C88.84 6.26 87.58 6.28 86.22 6.56C85.94 6.56 85.8 6.7 85.8 6.98L84 16.16C83.96 16.32 83.96 16.44 84 16.52C84.08 16.56 84.2 16.58 84.36 16.58H84.72C85.08 16.54 85.36 16.54 85.56 16.58C85.88 16.62 86.08 16.46 86.16 16.1L86.52 14C86.64 13.48 86.74 13.18 86.82 13.1C86.94 13.02 87.26 12.98 87.78 12.98C89.3 12.9 90.44 12.5 91.2 11.78C92.2 10.86 92.54 9.74 92.22 8.42ZM89.4 10.88C88.92 11.16 88.44 11.28 87.96 11.24H87.54C87.34 11.24 87.2 11.22 87.12 11.18C87.08 11.1 87.08 10.96 87.12 10.76L87.6 8.42C87.6 8.18 87.7 8.06 87.9 8.06H88.32C88.68 8.02 88.96 8.02 89.16 8.06C89.72 8.22 90.06 8.54 90.18 9.02C90.26 9.38 90.22 9.74 90.06 10.1C89.9 10.42 89.68 10.68 89.4 10.88ZM98.7 16.22C98.7 15.54 98.76 14.88 98.88 14.24C99.08 13.08 99.36 11.62 99.72 9.86C99.8 9.54 99.68 9.36 99.36 9.32C98.84 9.16 98.22 9.08 97.5 9.08C96.14 9.04 94.98 9.38 94.02 10.1C93.06 10.82 92.44 11.84 92.16 13.16C92 13.72 91.98 14.3 92.1 14.9C92.22 15.5 92.48 15.96 92.88 16.28C93.32 16.6 93.82 16.76 94.38 16.76C94.94 16.72 95.46 16.5 95.94 16.1C96.14 15.94 96.4 15.66 96.72 15.26L96.78 15.2C96.86 15.48 96.86 15.82 96.78 16.22C96.78 16.38 96.8 16.48 96.84 16.52C96.88 16.56 96.98 16.58 97.14 16.58H98.34C98.66 16.58 98.78 16.46 98.7 16.22ZM97.26 11.54C97.22 11.7 97.18 11.92 97.14 12.2C96.98 12.92 96.82 13.46 96.66 13.82L96.6 13.94C96.32 14.38 96.06 14.68 95.82 14.84C95.5 15.08 95.18 15.14 94.86 15.02C94.54 14.86 94.34 14.58 94.26 14.18V13.64C94.34 12.68 94.72 11.88 95.4 11.24C95.56 11.04 95.86 10.88 96.3 10.76C96.74 10.64 97.02 10.64 97.14 10.76C97.3 10.84 97.34 11.1 97.26 11.54ZM111.78 9.08C111.42 9.08 111.14 9.12 110.94 9.2C109.94 9.44 109.12 9.98 108.48 10.82C107.84 11.62 107.52 12.56 107.52 13.64C107.52 14.56 107.8 15.32 108.36 15.92C108.92 16.48 109.66 16.76 110.58 16.76C111.86 16.76 112.92 16.36 113.76 15.56C114.6 14.72 115.04 13.66 115.08 12.38C115.12 11.38 114.84 10.58 114.24 9.98C113.68 9.38 112.86 9.08 111.78 9.08ZM112.14 14.48C111.66 15.08 111.12 15.28 110.52 15.08C110.28 15 110.08 14.84 109.92 14.6C109.76 14.32 109.68 14.02 109.68 13.7C109.76 12.74 110.02 11.96 110.46 11.36C110.74 10.92 111.1 10.68 111.54 10.64C111.98 10.6 112.3 10.74 112.5 11.06C112.74 11.34 112.86 11.82 112.86 12.5C112.86 13.14 112.62 13.8 112.14 14.48ZM121.8 9.14C121 9.02 120.3 9.14 119.7 9.5C119.5 9.62 119.26 9.8 118.98 10.04L118.68 10.34C118.6 10.22 118.58 10.04 118.62 9.8C118.7 9.52 118.66 9.36 118.5 9.32C118.38 9.24 118.18 9.2 117.9 9.2C117.62 9.2 117.42 9.2 117.3 9.2C117.26 9.24 117.24 9.24 117.24 9.2C117.08 9.2 116.96 9.24 116.88 9.32C116.84 9.36 116.8 9.46 116.76 9.62L115.56 16.22C115.52 16.38 115.52 16.48 115.56 16.52C115.6 16.56 115.7 16.58 115.86 16.58H117.12C117.32 16.58 117.46 16.56 117.54 16.52C117.62 16.44 117.68 16.3 117.72 16.1C117.84 15.34 118.06 14.2 118.38 12.68C118.58 11.92 118.96 11.34 119.52 10.94C119.92 10.74 120.24 10.72 120.48 10.88C120.76 11.04 120.9 11.3 120.9 11.66L120.78 12.62L120.12 16.22C120.08 16.38 120.08 16.48 120.12 16.52C120.16 16.56 120.26 16.58 120.42 16.58H121.86C122.1 16.58 122.22 16.5 122.22 16.34L122.58 14.54C122.86 13.1 123.04 12 123.12 11.24C123.16 10.72 123.06 10.26 122.82 9.86C122.58 9.46 122.24 9.22 121.8 9.14ZM129.42 9.26C128.78 9.02 128.1 9 127.38 9.2C126.38 9.44 125.56 9.98 124.92 10.82C124.32 11.62 124.02 12.56 124.02 13.64C124.02 14.56 124.22 15.26 124.62 15.74C125.02 16.22 125.66 16.54 126.54 16.7C126.94 16.78 127.38 16.8 127.86 16.76C128.14 16.72 128.56 16.64 129.12 16.52C129.56 16.4 129.8 16.3 129.84 16.22C129.92 16.1 129.92 15.84 129.84 15.44V15.08C129.84 14.92 129.8 14.82 129.72 14.78C129.68 14.74 129.58 14.76 129.42 14.84C128.86 15.08 128.2 15.16 127.44 15.08C127 15.08 126.6 14.9 126.24 14.54C126.08 14.22 126.02 14 126.06 13.88C126.1 13.76 126.22 13.7 126.42 13.7H126.66C127.98 13.7 129 13.5 129.72 13.1C130.6 12.7 130.98 11.98 130.86 10.94C130.74 10.1 130.26 9.54 129.42 9.26ZM128.28 11.96C128.04 12.08 127.62 12.14 127.02 12.14L126.54 12.2C126.42 12.24 126.34 12.22 126.3 12.14C126.26 12.06 126.26 11.98 126.3 11.9C126.42 11.54 126.66 11.24 127.02 11C127.38 10.72 127.76 10.58 128.16 10.58C128.36 10.62 128.52 10.68 128.64 10.76C128.76 10.84 128.84 10.98 128.88 11.18C128.92 11.54 128.72 11.8 128.28 11.96ZM135.24 9.08C133.92 9.16 132.82 9.84 131.94 11.12C131.38 12.04 131.16 13.08 131.28 14.24C131.48 15.48 132.1 16.26 133.14 16.58C134.22 16.9 135.48 16.82 136.92 16.34C137.12 16.22 137.2 16.08 137.16 15.92V15.14C137.08 14.82 136.92 14.72 136.68 14.84C136.16 15.08 135.48 15.16 134.64 15.08C134.08 15.08 133.68 14.82 133.44 14.3C133.32 14.06 133.28 13.9 133.32 13.82C133.36 13.74 133.52 13.7 133.8 13.7C134.96 13.7 135.9 13.58 136.62 13.34C137.38 13.06 137.86 12.56 138.06 11.84C138.3 11.08 138.16 10.42 137.64 9.86C137.36 9.58 137.02 9.38 136.62 9.26C136.26 9.14 135.8 9.08 135.24 9.08ZM135.54 12.02C135.3 12.1 134.92 12.14 134.4 12.14L133.8 12.2C133.64 12.24 133.56 12.14 133.56 11.9C133.64 11.58 133.86 11.28 134.22 11C134.58 10.72 134.98 10.58 135.42 10.58C135.86 10.58 136.1 10.78 136.14 11.18C136.18 11.38 136.14 11.54 136.02 11.66C135.94 11.78 135.78 11.9 135.54 12.02ZM143.7 9.08C143.06 9.08 142.5 9.32 142.02 9.8C141.78 10.04 141.54 10.34 141.3 10.7C141.22 10.62 141.2 10.5 141.24 10.34V10.28C141.32 9.72 141.32 9.4 141.24 9.32C141.2 9.24 140.9 9.2 140.34 9.2H140.22C140.1 9.24 140.02 9.24 139.98 9.2C139.62 9.12 139.44 9.3 139.44 9.74C139.36 10.86 139.08 12.52 138.6 14.72L138.36 15.98C138.32 16.26 138.34 16.44 138.42 16.52C138.5 16.6 138.66 16.62 138.9 16.58C139.02 16.58 139.2 16.58 139.44 16.58C139.88 16.62 140.18 16.58 140.34 16.46C140.5 16.34 140.6 16.04 140.64 15.56C140.64 15.36 140.66 15.2 140.7 15.08L140.88 14.24C141.04 13.36 141.24 12.7 141.48 12.26C141.68 11.94 141.86 11.7 142.02 11.54C142.22 11.34 142.46 11.24 142.74 11.24C143.14 11.24 143.42 11.12 143.58 10.88C143.7 10.76 143.8 10.5 143.88 10.1L143.94 9.44C144.02 9.2 143.94 9.08 143.7 9.08ZM101.22 8.96C101.22 9.04 101.24 9.16 101.28 9.32C101.4 9.88 101.52 10.26 101.64 10.46C101.76 10.66 101.86 10.78 101.94 10.82C102.06 10.82 102.16 10.76 102.24 10.64C102.36 10.48 102.46 10.28 102.54 10.04C102.78 9.2 102.9 8.38 102.9 7.58C102.94 5.62 102.3 3.88 100.98 2.36C100.62 1.92 100.32 1.76 100.08 1.88C99.92 2 99.9 2.26 100.02 2.66V2.78C100.18 3.86 100.48 5.44 100.92 7.52L101.22 8.96ZM176.82 10.82C176.74 10.66 176.66 10.54 176.58 10.46C176.22 9.98 176.06 9.46 176.1 8.9V6.98C176.1 6.7 176.1 6.3 176.1 5.78C176.1 5.22 176.08 4.82 176.04 4.58C175.96 3.86 175.72 3.32 175.32 2.96C174.84 2.48 174.2 2.18 173.4 2.06C172.64 1.94 171.92 1.96 171.24 2.12C170.6 2.24 170 2.5 169.44 2.9C168.92 3.26 168.56 3.86 168.36 4.7C168.28 4.98 168.4 5.16 168.72 5.24L169.26 5.3C169.7 5.34 170.04 5.38 170.28 5.42C170.4 5.42 170.5 5.38 170.58 5.3C170.66 5.22 170.7 5.14 170.7 5.06C170.78 4.74 170.94 4.48 171.18 4.28C171.54 4 171.96 3.9 172.44 3.98C172.72 4.02 172.94 4.14 173.1 4.34C173.3 4.5 173.42 4.72 173.46 5V6.02L171.3 6.32C170.66 6.4 170.06 6.6 169.5 6.92C168.86 7.32 168.42 7.88 168.18 8.6L168 9.32V10.1L168.06 10.22C168.06 10.42 168.14 10.72 168.3 11.12C168.54 11.72 168.96 12.14 169.56 12.38C170.04 12.54 170.52 12.6 171 12.56C171.88 12.56 172.64 12.3 173.28 11.78C173.52 11.54 173.72 11.36 173.88 11.24C173.88 11.28 173.9 11.32 173.94 11.36C174.22 11.76 174.52 12.1 174.84 12.38C175.04 12.54 175.22 12.54 175.38 12.38L176.76 11.24C176.88 11.12 176.9 10.98 176.82 10.82ZM173.46 8.12C173.46 8.72 173.42 9.14 173.34 9.38C173.14 10.02 172.8 10.44 172.32 10.64C172 10.76 171.68 10.76 171.36 10.64C171.08 10.52 170.9 10.28 170.82 9.92C170.66 9.48 170.7 9 170.94 8.48C171.14 8.16 171.4 7.92 171.72 7.76C172.16 7.6 172.64 7.52 173.16 7.52H173.34C173.42 7.48 173.46 7.52 173.46 7.64V8.12ZM178.62 12.44C179.22 12.44 179.82 12.44 180.42 12.44C180.5 12.44 180.58 12.42 180.66 12.38C180.74 12.34 180.78 12.22 180.78 12.02V6.62C180.78 6.38 180.82 6.02 180.9 5.54C180.98 4.9 181.3 4.54 181.86 4.46C182.46 4.38 182.84 4.56 183 5C183.12 5.24 183.18 5.5 183.18 5.78C183.22 6.02 183.24 6.4 183.24 6.92V12.02C183.24 12.18 183.26 12.3 183.3 12.38C183.38 12.42 183.5 12.44 183.66 12.44H185.34C185.62 12.44 185.76 12.3 185.76 12.02V6.62L185.82 5.66C185.9 5.18 186.12 4.84 186.48 4.64C186.68 4.48 186.92 4.42 187.2 4.46C187.48 4.46 187.7 4.56 187.86 4.76C188.06 4.92 188.16 5.18 188.16 5.54V12.02C188.16 12.3 188.3 12.44 188.58 12.44H190.32C190.6 12.44 190.74 12.3 190.74 12.02V5.24C190.74 5 190.7 4.64 190.62 4.16V4.04C190.5 3.32 190.1 2.8 189.42 2.48C188.78 2.12 188.16 2 187.56 2.12C186.84 2.24 186.3 2.58 185.94 3.14C185.82 3.26 185.68 3.48 185.52 3.8C185.08 2.64 184.28 2.08 183.12 2.12C181.96 2.12 181.16 2.68 180.72 3.8H180.66V2.66C180.66 2.42 180.52 2.3 180.24 2.3H178.62C178.38 2.3 178.26 2.44 178.26 2.72V12.08C178.26 12.32 178.38 12.44 178.62 12.44ZM193.92 12.38C194.24 12.5 194.7 12.56 195.3 12.56C196.18 12.56 196.94 12.3 197.58 11.78C197.74 11.66 197.94 11.48 198.18 11.24C198.22 11.28 198.24 11.32 198.24 11.36C198.52 11.76 198.82 12.1 199.14 12.38C199.34 12.58 199.54 12.58 199.74 12.38L201.12 11.24C201.24 11.12 201.26 11.02 201.18 10.94C201.14 10.82 201.08 10.7 201 10.58L200.94 10.46C200.58 9.98 200.4 9.46 200.4 8.9V5.36C200.4 5.12 200.36 4.72 200.28 4.16C200.16 3.48 199.82 2.98 199.26 2.66C198.74 2.3 198.2 2.1 197.64 2.06C196.68 1.9 195.72 1.98 194.76 2.3C194.16 2.58 193.68 2.92 193.32 3.32C193 3.68 192.78 4.14 192.66 4.7C192.58 5.02 192.72 5.2 193.08 5.24C193.44 5.24 193.94 5.28 194.58 5.36C194.82 5.4 194.98 5.28 195.06 5C195.14 4.68 195.28 4.44 195.48 4.28C195.92 3.96 196.36 3.86 196.8 3.98C197.24 4.06 197.54 4.28 197.7 4.64C197.78 4.88 197.82 5.22 197.82 5.66V5.96L197.76 6.02C197.52 6.02 197.2 6.06 196.8 6.14L195.24 6.32C194.68 6.44 194.16 6.68 193.68 7.04C193 7.52 192.58 8.18 192.42 9.02C192.3 9.82 192.38 10.52 192.66 11.12C192.94 11.72 193.36 12.14 193.92 12.38ZM195.24 8.54C195.4 8.22 195.66 7.98 196.02 7.82C196.42 7.62 196.9 7.52 197.46 7.52H197.52C197.68 7.52 197.76 7.54 197.76 7.58C197.8 7.58 197.82 7.66 197.82 7.82V8.12C197.82 8.68 197.78 9.12 197.7 9.44C197.46 10.04 197.14 10.44 196.74 10.64C196.34 10.8 195.96 10.8 195.6 10.64C195.28 10.44 195.1 10.1 195.06 9.62C195.06 9.14 195.12 8.78 195.24 8.54ZM228 5.96C228 5.16 227.96 4.56 227.88 4.16C227.76 3.48 227.46 2.96 226.98 2.6C226.42 2.16 225.78 2 225.06 2.12C224.82 2.12 224.54 2.18 224.22 2.3C223.82 2.42 223.44 2.8 223.08 3.44C223 3.56 222.92 3.74 222.84 3.98H222.78V2.66C222.78 2.42 222.66 2.3 222.42 2.3H220.74C220.5 2.3 220.38 2.42 220.38 2.66V12.02C220.38 12.3 220.52 12.44 220.8 12.44H222.48C222.76 12.44 222.9 12.3 222.9 12.02V7.04L222.96 6.08C223.04 5.6 223.18 5.2 223.38 4.88C223.7 4.4 224.14 4.26 224.7 4.46C224.98 4.58 225.18 4.8 225.3 5.12C225.34 5.28 225.38 5.52 225.42 5.84L225.48 6.2V12.02C225.48 12.18 225.5 12.3 225.54 12.38C225.62 12.42 225.74 12.44 225.9 12.44H227.58C227.86 12.44 228 12.28 228 11.96V5.96ZM218.16 4.04C217.88 3.56 217.48 3.12 216.96 2.72C216.24 2.2 215.4 1.98 214.44 2.06C213.88 2.14 213.38 2.28 212.94 2.48C212.14 2.88 211.52 3.58 211.08 4.58C210.8 5.26 210.62 6.14 210.54 7.22C210.54 8.14 210.66 8.98 210.9 9.74C211.18 10.5 211.56 11.12 212.04 11.6C212.76 12.28 213.7 12.62 214.86 12.62C215.34 12.66 215.92 12.52 216.6 12.2C217.12 11.96 217.6 11.5 218.04 10.82C218.52 10.1 218.82 9.32 218.94 8.48C218.98 7.96 218.98 7.4 218.94 6.8C218.86 5.76 218.6 4.84 218.16 4.04ZM216.24 8.18C216.24 8.74 216.16 9.22 216 9.62C215.88 10.02 215.66 10.32 215.34 10.52C215.1 10.68 214.84 10.74 214.56 10.7C214.28 10.62 214.06 10.46 213.9 10.22C213.66 9.94 213.5 9.54 213.42 9.02C213.38 8.86 213.34 8.66 213.3 8.42C213.3 8.14 213.3 7.72 213.3 7.16H213.24L213.42 5.54C213.46 5.22 213.58 4.9 213.78 4.58C214.06 4.06 214.52 3.88 215.16 4.04C215.6 4.2 215.88 4.52 216 5C216.08 5.36 216.16 5.82 216.24 6.38V8.18ZM205.38 15.5C205.18 15.38 205.02 15.34 204.9 15.38C204.58 15.46 204.32 15.54 204.12 15.62L203.4 15.92C203.08 16 202.82 16.08 202.62 16.16L202.02 16.34C201.98 16.38 201.88 16.42 201.72 16.46C201.6 16.5 201.5 16.54 201.42 16.58L200.64 16.76L200.04 16.94L199.44 17.06C199.12 17.14 198.9 17.18 198.78 17.18C198.5 17.26 198.08 17.34 197.52 17.42L197.46 17.48C197.34 17.52 197.26 17.54 197.22 17.54C196.94 17.54 196.72 17.56 196.56 17.6C196.16 17.6 195.56 17.64 194.76 17.72C194.52 17.76 194.12 17.78 193.56 17.78C192.2 17.86 190.96 17.84 189.84 17.72L188.34 17.54C187.98 17.5 187.44 17.4 186.72 17.24L186.06 17.18L185.52 17L184.8 16.88L184.44 16.7L183.12 16.4L182.64 16.22L182.4 16.1L181.32 15.74L180.66 15.44C180.54 15.44 180.46 15.42 180.42 15.38L179.94 15.2L179.7 15.08C179.58 15.04 179.4 14.94 179.16 14.78L178.08 14.3L177.3 13.82C177.22 13.78 177.12 13.72 177 13.64L176.88 13.58C176.64 13.5 176.52 13.58 176.52 13.82C176.52 13.9 176.54 13.96 176.58 14C176.7 14.08 176.86 14.22 177.06 14.42L178.56 15.56C178.68 15.64 178.82 15.74 178.98 15.86C179.14 15.98 179.38 16.16 179.7 16.4L180 16.58C180.32 16.74 180.54 16.86 180.66 16.94C180.78 17.02 180.92 17.12 181.08 17.24C181.28 17.32 181.42 17.38 181.5 17.42C181.66 17.54 181.94 17.68 182.34 17.84L182.7 17.96C182.82 18.04 183.02 18.12 183.3 18.2L183.54 18.32C183.7 18.4 183.94 18.48 184.26 18.56L184.38 18.68C184.5 18.72 184.58 18.74 184.62 18.74L185.34 18.98C185.58 19.02 185.74 19.08 185.82 19.16L186.3 19.22L186.72 19.34C186.76 19.38 186.82 19.4 186.9 19.4C187.02 19.4 187.16 19.44 187.32 19.52C187.52 19.52 187.74 19.56 187.98 19.64L188.64 19.7C189.12 19.82 189.6 19.88 190.08 19.88C190.72 19.96 191.2 20 191.52 20H192.96L193.98 19.94C194.06 19.9 194.14 19.88 194.22 19.88C194.34 19.88 194.42 19.88 194.46 19.88C194.7 19.88 195.02 19.84 195.42 19.76L196.14 19.7L196.8 19.58L196.86 19.52C196.9 19.48 196.94 19.48 196.98 19.52L197.4 19.46L198.42 19.22L198.9 19.04C199.3 18.96 199.58 18.88 199.74 18.8C199.98 18.72 200.34 18.6 200.82 18.44L201.6 18.14L202.68 17.6C202.8 17.56 202.88 17.52 202.92 17.48L204.24 16.76C204.4 16.68 204.64 16.52 204.96 16.28L205.32 15.98C205.36 15.94 205.38 15.86 205.38 15.74C205.42 15.62 205.42 15.54 205.38 15.5ZM209.34 9.86C208.58 9.46 207.72 9.22 206.76 9.14H205.92V9.08L205.98 8.96L209.22 4.34C209.42 4.06 209.52 3.76 209.52 3.44C209.48 3.32 209.48 3.16 209.52 2.96V2.66C209.52 2.38 209.36 2.24 209.04 2.24H203.1C202.82 2.24 202.68 2.38 202.68 2.66V3.86C202.68 4.14 202.82 4.28 203.1 4.28H206.22L206.16 4.4L204.78 6.38C203.9 7.66 203.22 8.62 202.74 9.26C202.46 9.62 202.32 9.98 202.32 10.34C202.36 10.54 202.36 10.82 202.32 11.18V11.9C202.36 12.02 202.42 12.1 202.5 12.14C202.62 12.18 202.74 12.18 202.86 12.14C203.34 11.9 203.82 11.72 204.3 11.6C204.94 11.44 205.58 11.38 206.22 11.42C206.7 11.42 207.18 11.48 207.66 11.6C208.18 11.72 208.68 11.9 209.16 12.14C209.28 12.22 209.38 12.24 209.46 12.2C209.58 12.12 209.64 12 209.64 11.84C209.72 11.36 209.72 10.88 209.64 10.4C209.64 10.12 209.54 9.94 209.34 9.86ZM208.02 13.28C207.86 13.2 207.68 13.14 207.48 13.1C206.8 12.98 206.18 12.94 205.62 12.98C205.38 12.98 205.18 13 205.02 13.04L204.72 13.1C204.44 13.14 204.22 13.18 204.06 13.22C203.94 13.26 203.74 13.34 203.46 13.46L203.28 13.52C203.24 13.52 203.2 13.54 203.16 13.58C203.16 13.58 203.18 13.6 203.22 13.64C203.14 13.6 203.04 13.62 202.92 13.7C202.84 13.74 202.68 13.84 202.44 14L202.38 14.24H203.04L203.52 14.18C204.08 14.1 204.5 14.08 204.78 14.12H205.98C206.42 14.2 206.7 14.34 206.82 14.54V14.9C206.86 15.14 206.86 15.32 206.82 15.44L206.7 15.92C206.62 16.28 206.54 16.56 206.46 16.76C206.46 16.8 206.46 16.86 206.46 16.94C206.46 17.02 206.42 17.1 206.34 17.18C206.3 17.22 206.24 17.34 206.16 17.54L205.98 18.2C205.98 18.24 205.98 18.26 205.98 18.26H205.92C205.84 18.34 205.8 18.4 205.8 18.44L205.86 18.68C205.98 18.68 206.06 18.66 206.1 18.62L206.4 18.38C206.64 18.14 206.8 17.96 206.88 17.84L207.24 17.3C207.32 17.18 207.44 16.98 207.6 16.7L207.66 16.52C207.74 16.36 207.82 16.12 207.9 15.8C207.9 15.72 207.94 15.64 208.02 15.56L208.08 15.14C208.24 14.5 208.3 14 208.26 13.64C208.18 13.44 208.1 13.32 208.02 13.28ZM205.86 12.98H206.16H205.86ZM259.44 8C259.72 8.12 260.1 8.32 260.58 8.6L261 8.84C261.32 9 261.54 9.26 261.66 9.62C261.78 9.94 261.76 10.28 261.6 10.64C261.48 10.96 261.26 11.2 260.94 11.36C260.62 11.48 260.28 11.5 259.92 11.42C259.16 11.22 258.54 11.02 258.06 10.82L258 10.94C258.96 11.7 260.2 12.74 261.72 14.06C261.8 14.14 261.86 14.18 261.9 14.18C261.98 14.14 262.04 14.08 262.08 14L269.46 5.24C269.54 5.12 269.58 5.02 269.58 4.94C269.62 4.86 269.58 4.76 269.46 4.64C268.46 3.84 267 2.64 265.08 1.04C265 0.959999 264.92 0.92 264.84 0.92C264.8 0.92 264.74 0.959999 264.66 1.04C264.26 1.56 263.62 2.34 262.74 3.38L259.32 7.4C259.2 7.56 259.14 7.68 259.14 7.76C259.18 7.84 259.28 7.92 259.44 8ZM263.28 5.42C263.88 5.46 264.4 5.7 264.84 6.14C265.28 6.58 265.5 7.08 265.5 7.64C265.5 8.2 265.3 8.68 264.9 9.08C264.54 9.44 264.06 9.62 263.46 9.62C262.9 9.58 262.4 9.34 261.96 8.9C261.52 8.46 261.3 7.96 261.3 7.4C261.3 6.84 261.48 6.38 261.84 6.02C262.24 5.62 262.72 5.42 263.28 5.42ZM266.88 19.52C266.96 19.68 267.1 19.72 267.3 19.64L271.56 19.28L271.14 18.26C270.74 17.22 270.4 16.46 270.12 15.98C269.64 15.06 268.94 14.58 268.02 14.54C267.26 14.46 266.14 14.44 264.66 14.48H263.34C263.1 14.48 262.9 14.56 262.74 14.72C262.62 14.88 262.56 15.06 262.56 15.26C262.6 15.46 262.68 15.64 262.8 15.8C262.96 15.92 263.16 16 263.4 16.04H265.2C265.36 16.04 265.46 16.06 265.5 16.1C265.58 16.14 265.62 16.22 265.62 16.34C265.66 16.46 265.64 16.54 265.56 16.58C265.48 16.58 265.36 16.58 265.2 16.58H262.2C261.6 16.58 261.06 16.4 260.58 16.04C259.9 15.56 259.16 15.06 258.36 14.54C258.16 14.38 257.94 14.32 257.7 14.36C257.5 14.36 257.32 14.46 257.16 14.66C257.04 14.82 256.98 15.02 256.98 15.26C257.02 15.5 257.14 15.72 257.34 15.92L259.68 17.9C260.44 18.58 261.3 18.92 262.26 18.92C262.7 18.88 263.4 18.88 264.36 18.92H265.38C266.1 18.92 266.6 19.12 266.88 19.52ZM261.06 10.34C261.18 9.9 261.02 9.56 260.58 9.32C260.02 9.04 259.22 8.58 258.18 7.94C257.82 7.82 257.68 7.62 257.76 7.34C257.84 7.06 258.06 6.92 258.42 6.92H258.6C258.84 6.96 258.98 6.92 259.02 6.8C259.34 6.44 259.86 5.84 260.58 5L260.88 4.64L259.62 4.4C259.06 4.28 258.62 4.22 258.3 4.22C257.82 4.18 257.36 4.22 256.92 4.34L256.62 4.46C255.5 4.78 254.64 5 254.04 5.12C253.88 5.12 253.8 5.22 253.8 5.42V9.14L254.28 9.02C254.56 8.94 254.76 8.88 254.88 8.84C255.36 8.64 255.76 8.76 256.08 9.2C256.4 9.52 256.68 9.72 256.92 9.8C258.28 10.28 259.3 10.62 259.98 10.82C260.26 10.9 260.48 10.9 260.64 10.82C260.84 10.7 260.98 10.54 261.06 10.34ZM271.86 19.88C269.7 20.12 268.08 20.28 267 20.36C266.8 20.36 266.7 20.48 266.7 20.72V20.78C266.7 20.98 266.8 21.08 267 21.08H271.26C271.74 21.08 272 21.04 272.04 20.96C272.12 20.88 272.14 20.6 272.1 20.12C272.1 19.96 272.02 19.88 271.86 19.88ZM252.72 4.64C252.6 4.64 252.44 4.64 252.24 4.64C252.08 4.6 252 4.72 252 5C252.12 6.04 252.26 7.6 252.42 9.68C252.46 9.8 252.5 9.88 252.54 9.92C252.62 9.96 252.72 9.98 252.84 9.98C253.08 10.02 253.18 9.88 253.14 9.56C253.14 9.24 253.16 8.76 253.2 8.12V6.56C253.16 5.92 253.16 5.42 253.2 5.06C253.2 4.86 253.16 4.74 253.08 4.7C253 4.62 252.88 4.6 252.72 4.64ZM262.2 7.58C262.36 7.86 262.56 8 262.8 8C262.96 8 263.16 7.94 263.4 7.82L263.52 7.76C263.68 7.68 263.8 7.68 263.88 7.76C263.96 7.84 263.92 7.96 263.76 8.12C263.68 8.2 263.6 8.26 263.52 8.3C263.32 8.38 263.28 8.5 263.4 8.66C263.52 8.82 263.68 8.86 263.88 8.78C264 8.58 264.12 8.52 264.24 8.6C264.36 8.68 264.46 8.68 264.54 8.6C264.62 8.52 264.66 8.46 264.66 8.42C264.66 8.34 264.62 8.28 264.54 8.24C264.5 8.16 264.48 8.1 264.48 8.06C264.48 7.98 264.5 7.92 264.54 7.88C264.54 7.48 264.42 7.22 264.18 7.1C263.98 6.98 263.7 7 263.34 7.16L263.16 7.28C263 7.36 262.88 7.36 262.8 7.28C262.76 7.16 262.84 7.02 263.04 6.86L263.16 6.8C263.28 6.72 263.3 6.62 263.22 6.5C263.18 6.38 263.12 6.32 263.04 6.32C263 6.32 262.9 6.36 262.74 6.44C262.58 6.52 262.46 6.54 262.38 6.5C262.34 6.42 262.28 6.44 262.2 6.56L262.08 6.68C262.2 6.76 262.24 6.92 262.2 7.16C262.16 7.36 262.16 7.5 262.2 7.58ZM275.28 9.08C275.52 9.2 275.74 9.26 275.94 9.26C276.18 9.26 276.36 9.24 276.48 9.2L276.6 9.14C276.76 9.1 276.86 9.06 276.9 9.02C277.1 8.94 277.24 8.86 277.32 8.78C277.44 8.66 277.52 8.52 277.56 8.36L277.08 8.06C277 8.22 276.92 8.34 276.84 8.42C276.8 8.5 276.72 8.56 276.6 8.6L276.06 8.72C275.94 8.72 275.76 8.68 275.52 8.6C275.44 8.56 275.32 8.46 275.16 8.3C275.08 8.22 275 8.06 274.92 7.82C274.84 7.58 274.8 7.4 274.8 7.28C274.8 7.04 274.82 6.88 274.86 6.8L274.92 6.68C275 6.48 275.06 6.36 275.1 6.32C275.26 6.16 275.4 6.04 275.52 5.96C275.64 5.88 275.8 5.84 276 5.84L276.3 5.9C276.34 5.9 276.42 5.92 276.54 5.96L276.6 6.02C276.64 6.02 276.72 6.08 276.84 6.2C276.88 6.24 276.94 6.34 277.02 6.5L277.5 6.14C277.38 5.94 277.2 5.76 276.96 5.6C276.76 5.4 276.48 5.3 276.12 5.3C275.76 5.3 275.48 5.36 275.28 5.48L275.1 5.6C274.9 5.72 274.76 5.82 274.68 5.9C274.48 6.14 274.34 6.36 274.26 6.56C274.22 6.72 274.2 6.96 274.2 7.28C274.2 7.6 274.22 7.86 274.26 8.06C274.34 8.22 274.48 8.42 274.68 8.66C274.88 8.9 275.08 9.04 275.28 9.08ZM280.44 8.54V7.52C280.44 7.16 280.32 6.88 280.08 6.68C279.88 6.44 279.58 6.32 279.18 6.32C278.78 6.32 278.4 6.44 278.04 6.68L278.22 7.1C278.3 7.02 278.44 6.94 278.64 6.86C278.84 6.78 279 6.74 279.12 6.74C279.36 6.74 279.54 6.8 279.66 6.92C279.78 7.04 279.84 7.22 279.84 7.46V7.64L279.48 7.52C279.44 7.48 279.34 7.48 279.18 7.52H279.06C278.82 7.52 278.66 7.54 278.58 7.58L278.22 7.76C278.1 7.84 278 7.94 277.92 8.06C277.88 8.1 277.86 8.22 277.86 8.42C277.86 8.58 277.88 8.7 277.92 8.78L278.1 9.08L278.46 9.26C278.54 9.3 278.66 9.32 278.82 9.32C278.98 9.32 279.18 9.26 279.42 9.14C279.66 9.02 279.82 8.9 279.9 8.78V8.96L280.02 9.2C280.06 9.24 280.16 9.26 280.32 9.26H280.62V8.72H280.44V8.54ZM279.84 8.36C279.84 8.4 279.8 8.46 279.72 8.54C279.68 8.62 279.58 8.7 279.42 8.78C279.34 8.82 279.2 8.84 279 8.84C278.8 8.84 278.64 8.8 278.52 8.72C278.44 8.6 278.4 8.48 278.4 8.36C278.4 8.2 278.48 8.08 278.64 8L278.7 7.94C278.9 7.86 279.06 7.82 279.18 7.82L279.48 7.88C279.56 7.88 279.68 7.92 279.84 8V8.36ZM282.24 8.84C281.88 8.84 281.52 8.72 281.16 8.48L280.92 8.9L281.22 9.08L281.52 9.2C281.6 9.24 281.72 9.26 281.88 9.26L282.24 9.32L282.72 9.26C282.84 9.26 282.96 9.2 283.08 9.08C283.2 8.96 283.28 8.86 283.32 8.78C283.4 8.62 283.44 8.5 283.44 8.42C283.44 8.3 283.42 8.2 283.38 8.12C283.34 8 283.26 7.92 283.14 7.88L282.78 7.7L282.3 7.58L282 7.46C282 7.42 281.96 7.4 281.88 7.4C281.84 7.4 281.8 7.4 281.76 7.4L281.7 7.28C281.66 7.28 281.64 7.22 281.64 7.1C281.64 6.98 281.7 6.9 281.82 6.86C281.98 6.78 282.1 6.74 282.18 6.74C282.46 6.74 282.76 6.84 283.08 7.04L283.32 6.68C283.24 6.6 283.08 6.52 282.84 6.44C282.6 6.36 282.38 6.32 282.18 6.32C281.98 6.32 281.84 6.34 281.76 6.38L281.4 6.56C281.32 6.6 281.24 6.7 281.16 6.86C281.12 6.94 281.1 7.06 281.1 7.22V7.52C281.1 7.56 281.14 7.6 281.22 7.64L281.28 7.7L281.76 7.94C281.88 7.98 281.98 8 282.06 8C282.34 8.04 282.54 8.1 282.66 8.18C282.78 8.22 282.84 8.3 282.84 8.42C282.84 8.54 282.78 8.66 282.66 8.78C282.58 8.82 282.44 8.84 282.24 8.84ZM286.32 6.68C286.28 6.6 286.18 6.52 286.02 6.44C285.86 6.36 285.72 6.32 285.6 6.32C285.4 6.32 285.18 6.4 284.94 6.56C284.74 6.68 284.6 6.82 284.52 6.98V5.24H283.92V9.26H284.52V7.52L284.64 7.28C284.68 7.16 284.76 7.08 284.88 7.04L285 6.98C285.04 6.94 285.08 6.92 285.12 6.92C285.16 6.88 285.24 6.86 285.36 6.86C285.52 6.86 285.64 6.92 285.72 7.04C285.84 7.12 285.9 7.32 285.9 7.64V9.26H286.5V7.52C286.5 7.32 286.48 7.16 286.44 7.04L286.32 6.68ZM290.94 8.84C290.98 8.8 291.04 8.7 291.12 8.54L291.24 8.36C291.32 8.28 291.34 8.14 291.3 7.94V7.82C291.3 7.54 291.28 7.34 291.24 7.22L290.94 6.8C290.74 6.6 290.58 6.48 290.46 6.44C290.22 6.36 290.02 6.32 289.86 6.32C289.7 6.32 289.5 6.36 289.26 6.44C289.06 6.52 288.88 6.64 288.72 6.8C288.6 6.96 288.52 7.1 288.48 7.22C288.4 7.46 288.36 7.66 288.36 7.82C288.36 7.94 288.4 8.1 288.48 8.3C288.56 8.5 288.64 8.68 288.72 8.84C288.84 8.96 288.98 9.06 289.14 9.14L289.2 9.2C289.32 9.28 289.54 9.32 289.86 9.32C290.02 9.32 290.22 9.28 290.46 9.2C290.58 9.16 290.74 9.04 290.94 8.84ZM289.86 8.78C289.7 8.78 289.58 8.76 289.5 8.72C289.42 8.68 289.32 8.62 289.2 8.54C289.12 8.42 289.08 8.32 289.08 8.24C289.08 8.16 289.06 8.08 289.02 8C288.98 7.92 288.96 7.86 288.96 7.82C288.96 7.74 289 7.62 289.08 7.46C289.08 7.34 289.12 7.24 289.2 7.16C289.32 7.04 289.42 6.96 289.5 6.92C289.58 6.88 289.7 6.86 289.86 6.86C290.02 6.86 290.12 6.88 290.16 6.92L290.46 7.1L290.64 7.4C290.68 7.48 290.7 7.62 290.7 7.82L290.64 8.18C290.56 8.34 290.5 8.44 290.46 8.48C290.34 8.6 290.24 8.68 290.16 8.72C290.12 8.76 290.02 8.78 289.86 8.78ZM292.44 7.52C292.48 7.48 292.5 7.44 292.5 7.4L292.56 7.28C292.6 7.24 292.66 7.18 292.74 7.1L292.8 7.04C292.88 6.96 292.94 6.92 292.98 6.92C293.06 6.88 293.16 6.86 293.28 6.86C293.44 6.86 293.56 6.94 293.64 7.1C293.76 7.22 293.82 7.4 293.82 7.64V9.26H294.42V7.52C294.42 7.32 294.4 7.16 294.36 7.04L294.24 6.68C294.2 6.56 294.1 6.48 293.94 6.44C293.82 6.36 293.7 6.32 293.58 6.32C293.34 6.32 293.1 6.4 292.86 6.56C292.62 6.68 292.46 6.82 292.38 6.98V6.38H291.84V9.26H292.44V7.52ZM279.72 12.56C279.44 12.24 279.1 12 278.7 11.84C278.3 11.68 277.78 11.6 277.14 11.6H274.68V18.44H277.14C277.54 18.44 278.02 18.36 278.58 18.2C278.86 18.12 279.2 17.88 279.6 17.48C279.92 17.16 280.16 16.82 280.32 16.46C280.48 16.06 280.56 15.58 280.56 15.02C280.56 14.66 280.48 14.2 280.32 13.64C280.24 13.4 280.08 13.1 279.84 12.74L279.72 12.56ZM279.06 15.86C279.02 16.02 278.92 16.24 278.76 16.52L278.7 16.58C278.58 16.74 278.36 16.9 278.04 17.06C277.8 17.18 277.52 17.24 277.2 17.24H276V12.74H277.2C277.52 12.74 277.8 12.8 278.04 12.92C278.36 13.08 278.58 13.24 278.7 13.4C278.86 13.52 278.98 13.74 279.06 14.06C279.14 14.26 279.18 14.58 279.18 15.02C279.18 15.42 279.14 15.7 279.06 15.86ZM285.78 14.06C285.54 13.82 285.24 13.64 284.88 13.52C284.52 13.36 284.16 13.28 283.8 13.28C283.36 13.28 283 13.34 282.72 13.46C282.44 13.58 282.16 13.78 281.88 14.06C281.64 14.3 281.46 14.58 281.34 14.9C281.22 15.18 281.16 15.5 281.16 15.86C281.16 16.22 281.22 16.58 281.34 16.94C281.42 17.18 281.58 17.44 281.82 17.72C282.1 17.96 282.4 18.16 282.72 18.32C282.96 18.44 283.32 18.5 283.8 18.5C284.4 18.5 284.88 18.4 285.24 18.2C285.64 17.96 285.94 17.62 286.14 17.18L285.06 16.88C284.98 17.08 284.82 17.24 284.58 17.36C284.34 17.48 284.1 17.54 283.86 17.54C283.66 17.54 283.48 17.52 283.32 17.48C283.2 17.4 283.06 17.3 282.9 17.18C282.78 17.06 282.68 16.94 282.6 16.82C282.56 16.66 282.54 16.48 282.54 16.28H286.44V15.86C286.44 15.5 286.38 15.18 286.26 14.9C286.14 14.62 285.98 14.34 285.78 14.06ZM282.48 15.5C282.48 15.46 282.5 15.4 282.54 15.32C282.54 15.16 282.58 15.04 282.66 14.96C282.74 14.76 282.82 14.62 282.9 14.54C283.02 14.42 283.16 14.34 283.32 14.3C283.4 14.26 283.56 14.24 283.8 14.24C284.12 14.24 284.4 14.34 284.64 14.54C284.88 14.7 285.04 15.02 285.12 15.5H282.48ZM289.32 17.3C289.24 17.3 289.14 17.3 289.02 17.3C288.7 17.3 288.54 17.12 288.54 16.76V11.36H287.22V17.24C287.22 17.64 287.34 17.94 287.58 18.14C287.9 18.38 288.2 18.5 288.48 18.5L289.14 18.44L289.74 18.26L289.56 17.18L289.32 17.3ZM290.28 13.4H291.6V18.44H290.28V13.4ZM290.28 11.42H291.6V12.68H290.28V11.42ZM294.84 17.36L293.52 13.4H292.2L294.06 18.44H295.44L297.3 13.4H296.1L294.84 17.36ZM302.22 14.06C302.06 13.86 301.78 13.68 301.38 13.52C301.02 13.36 300.66 13.28 300.3 13.28C299.86 13.28 299.5 13.36 299.22 13.52C298.82 13.64 298.54 13.82 298.38 14.06L298.32 14.12C298.08 14.48 297.92 14.74 297.84 14.9C297.72 15.18 297.66 15.5 297.66 15.86C297.66 16.22 297.72 16.58 297.84 16.94C297.92 17.18 298.08 17.44 298.32 17.72C298.6 17.96 298.9 18.16 299.22 18.32C299.46 18.44 299.82 18.5 300.3 18.5C300.9 18.5 301.38 18.38 301.74 18.14C302.18 17.82 302.48 17.5 302.64 17.18L301.56 16.88C301.4 17.12 301.24 17.28 301.08 17.36C300.84 17.48 300.6 17.54 300.36 17.54C300.12 17.54 299.96 17.52 299.88 17.48C299.72 17.4 299.56 17.3 299.4 17.18C299.28 17.06 299.18 16.94 299.1 16.82C299.06 16.66 299.04 16.48 299.04 16.28H302.94V15.86C302.94 15.5 302.88 15.18 302.76 14.9C302.64 14.58 302.46 14.3 302.22 14.06ZM298.98 15.5C298.98 15.38 299 15.22 299.04 15.02L299.1 14.96L299.4 14.54C299.52 14.42 299.66 14.34 299.82 14.3C299.9 14.26 300.06 14.24 300.3 14.24C300.62 14.24 300.9 14.34 301.14 14.54C301.38 14.7 301.54 15.02 301.62 15.5H298.98ZM306.48 13.28C306.2 13.28 305.9 13.4 305.58 13.64C305.3 13.84 305.08 14.12 304.92 14.48V13.4H303.72V18.44H305.04V15.38C305.16 15.06 305.38 14.84 305.7 14.72C306.1 14.56 306.44 14.48 306.72 14.48V13.34C306.72 13.3 306.68 13.28 306.6 13.28H306.48ZM310.8 13.4L309.6 17.3L308.22 13.4H306.9L308.88 18.44L308.7 18.98C308.66 19.1 308.6 19.2 308.52 19.28L308.34 19.46C308.3 19.5 308.24 19.5 308.16 19.46H307.86C307.7 19.46 307.58 19.44 307.5 19.4V20.54C307.66 20.58 307.9 20.6 308.22 20.6C308.66 20.6 309.02 20.5 309.3 20.3C309.58 20.1 309.78 19.8 309.9 19.4L312 13.4H310.8Z" fill="#777777"/>
</svg>
